<?xml version="1.0" encoding="UTF-8" standalone="no"?>
<!DOCTYPE svg PUBLIC "-//W3C//DTD SVG 1.1//EN"
 "http://www.w3.org/Graphics/SVG/1.1/DTD/svg11.dtd">
<!-- Generated by graphviz version 5.0.0 (20220707.1540)
 -->
<!-- Title: dependencies Pages: 1 -->
<svg width="663pt" height="174pt"
 viewBox="0.00 0.00 663.00 173.80" xmlns="http://www.w3.org/2000/svg" xmlns:xlink="http://www.w3.org/1999/xlink">
<g id="graph0" class="graph" transform="scale(1 1) rotate(0) translate(4 169.8)">
<title>dependencies</title>
<polygon fill="white" stroke="transparent" points="-4,4 -4,-169.8 659,-169.8 659,4 -4,4"/>
<text text-anchor="middle" x="327.5" y="-8.2" font-family="sans-serif" font-size="14.00">dependencies</text>
<g id="clust1" class="cluster">
<title>cluster_BackofficeModule</title>
<polygon fill="none" stroke="black" stroke-dasharray="1,5" points="8,-32.8 8,-157.8 647,-157.8 647,-32.8 8,-32.8"/>
</g>
<g id="clust6" class="cluster">
<title>cluster_BackofficeModule_imports</title>
<polygon fill="none" stroke="black" points="457,-40.8 457,-92.8 639,-92.8 639,-40.8 457,-40.8"/>
</g>
<g id="clust2" class="cluster">
<title>cluster_BackofficeModule_declarations</title>
<polygon fill="none" stroke="black" points="16,-40.8 16,-92.8 449,-92.8 449,-40.8 16,-40.8"/>
</g>
<!-- BackofficeComponent -->
<g id="node1" class="node">
<title>BackofficeComponent</title>
<polygon fill="#ffffb3" stroke="black" points="441.24,-84.8 298.76,-84.8 298.76,-48.8 441.24,-48.8 441.24,-84.8"/>
<text text-anchor="middle" x="370" y="-62.6" font-family="Times,serif" font-size="14.00">BackofficeComponent</text>
</g>
<!-- BackofficeModule -->
<g id="node4" class="node">
<title>BackofficeModule</title>
<polygon fill="#8dd3c7" stroke="black" points="356.46,-149.8 353.46,-153.8 332.46,-153.8 329.46,-149.8 235.54,-149.8 235.54,-113.8 356.46,-113.8 356.46,-149.8"/>
<text text-anchor="middle" x="296" y="-127.6" font-family="Times,serif" font-size="14.00">BackofficeModule</text>
</g>
<!-- BackofficeComponent&#45;&gt;BackofficeModule -->
<g id="edge1" class="edge">
<title>BackofficeComponent&#45;&gt;BackofficeModule</title>
<path fill="none" stroke="black" d="M327.56,-84.91C327.56,-84.91 327.56,-103.79 327.56,-103.79"/>
<polygon fill="black" stroke="black" points="324.06,-103.79 327.56,-113.79 331.06,-103.79 324.06,-103.79"/>
</g>
<!-- ClockComponent -->
<g id="node2" class="node">
<title>ClockComponent</title>
<polygon fill="#ffffb3" stroke="black" points="280.27,-84.8 165.73,-84.8 165.73,-48.8 280.27,-48.8 280.27,-84.8"/>
<text text-anchor="middle" x="223" y="-62.6" font-family="Times,serif" font-size="14.00">ClockComponent</text>
</g>
<!-- ClockComponent&#45;&gt;BackofficeModule -->
<g id="edge2" class="edge">
<title>ClockComponent&#45;&gt;BackofficeModule</title>
<path fill="none" stroke="black" d="M257.95,-84.91C257.95,-84.91 257.95,-103.79 257.95,-103.79"/>
<polygon fill="black" stroke="black" points="254.45,-103.79 257.95,-113.79 261.45,-103.79 254.45,-103.79"/>
</g>
<!-- SidebarComponent -->
<g id="node3" class="node">
<title>SidebarComponent</title>
<polygon fill="#ffffb3" stroke="black" points="148.1,-84.8 23.9,-84.8 23.9,-48.8 148.1,-48.8 148.1,-84.8"/>
<text text-anchor="middle" x="86" y="-62.6" font-family="Times,serif" font-size="14.00">SidebarComponent</text>
</g>
<!-- SidebarComponent&#45;&gt;BackofficeModule -->
<g id="edge3" class="edge">
<title>SidebarComponent&#45;&gt;BackofficeModule</title>
<path fill="none" stroke="black" d="M86,-84.91C86,-104.14 86,-131.8 86,-131.8 86,-131.8 225.26,-131.8 225.26,-131.8"/>
<polygon fill="black" stroke="black" points="225.26,-135.3 235.26,-131.8 225.26,-128.3 225.26,-135.3"/>
</g>
<!-- BackofficeRoutingModule -->
<g id="node5" class="node">
<title>BackofficeRoutingModule</title>
<polygon fill="#8dd3c7" stroke="black" points="631.08,-84.8 628.08,-88.8 607.08,-88.8 604.08,-84.8 464.92,-84.8 464.92,-48.8 631.08,-48.8 631.08,-84.8"/>
<text text-anchor="middle" x="548" y="-62.6" font-family="Times,serif" font-size="14.00">BackofficeRoutingModule</text>
</g>
<!-- BackofficeRoutingModule&#45;&gt;BackofficeModule -->
<g id="edge4" class="edge">
<title>BackofficeRoutingModule&#45;&gt;BackofficeModule</title>
<path fill="none" stroke="black" d="M548,-84.91C548,-104.14 548,-131.8 548,-131.8 548,-131.8 366.68,-131.8 366.68,-131.8"/>
<polygon fill="black" stroke="black" points="366.68,-128.3 356.68,-131.8 366.68,-135.3 366.68,-128.3"/>
</g>
</g>
</svg>
