<?xml version="1.0" standalone="no"?>
<!DOCTYPE svg PUBLIC "-//W3C//DTD SVG 1.1//EN" "http://www.w3.org/Graphics/SVG/1.1/DTD/svg11.dtd" >
<svg xmlns="http://www.w3.org/2000/svg">
<metadata>Generated by IcoMoon</metadata>
<defs>
<font id="icomoon" horiz-adv-x="1024">
<font-face units-per-em="1024" ascent="960" descent="-64" />
<missing-glyph horiz-adv-x="1024" />
<glyph unicode="&#x20;" horiz-adv-x="512" d="" />
<glyph unicode="&#xe900;" glyph-name="right-quotation-mark" d="M354.468 881.226h-236.312c-32.825 0-60.72-11.488-83.699-34.459-22.968-22.975-34.457-50.87-34.457-83.697v-236.303c0-32.825 11.482-60.716 34.457-83.686 22.977-22.968 50.881-34.461 83.699-34.461h137.846c16.405 0 30.357-5.746 41.845-17.23 11.488-11.478 17.23-25.434 17.23-41.852v-19.681c0-43.49-15.388-80.606-46.154-111.381-30.769-30.76-67.894-46.145-111.388-46.145h-39.38c-10.674 0-19.901-3.908-27.699-11.697-7.792-7.79-11.691-17.024-11.691-27.691v-78.779c0-10.65 3.899-19.901 11.691-27.693 7.805-7.788 17.024-11.697 27.699-11.697h39.382c42.671 0 83.389 8.32 122.161 24.93 38.77 16.612 72.306 39.080 100.615 67.389 28.303 28.311 50.767 61.841 67.381 100.613 16.612 38.77 24.921 79.485 24.921 122.15v433.225c0 32.827-11.488 60.72-34.459 83.691s-50.872 34.457-83.689 34.457zM989.531 846.767c-22.968 22.97-50.866 34.459-83.691 34.459h-236.303c-32.825 0-60.72-11.488-83.691-34.459-22.968-22.977-34.452-50.87-34.452-83.697v-236.303c0-32.825 11.484-60.716 34.452-83.686 22.97-22.968 50.868-34.461 83.691-34.461h137.846c16.405 0 30.368-5.746 41.854-17.23 11.475-11.484 17.23-25.434 17.23-41.852v-19.681c0-43.49-15.388-80.606-46.161-111.381-30.766-30.76-67.883-46.145-111.381-46.145h-39.388c-10.665 0-19.901-3.908-27.691-11.697-7.796-7.79-11.7-17.024-11.7-27.691v-78.779c0-10.65 3.903-19.901 11.7-27.693 7.788-7.788 17.024-11.697 27.691-11.697h39.388c42.664 0 83.38 8.32 122.156 24.93 38.763 16.612 72.295 39.080 100.606 67.389 28.309 28.311 50.786 61.85 67.389 100.613 16.61 38.761 24.923 79.485 24.923 122.15v433.225c-0.006 32.827-11.484 60.72-34.47 83.689z" />
<glyph unicode="&#xe901;" glyph-name="down-arrow" d="M1011.453 734.482c-16.73 16.816-43.875 16.816-60.605 0l-438.824-481.508-438.869 481.508c-16.73 16.816-43.876 16.816-60.607 0s-16.73-44.089 0-60.903l466.996-512.403c8.92-8.963 20.785-12.803 32.437-12.208 11.692-0.596 23.517 3.244 32.437 12.208l467.038 512.448c16.729 16.812 16.729 44.042-0.002 60.858z" />
<glyph unicode="&#xe902;" glyph-name="checked" d="M512 960c-282.306 0-512-229.694-512-512s229.694-512 512-512 512 229.694 512 512-229.694 512-512 512zM798.155 582.737l-327.218-324.652c-19.248-19.248-50.045-20.531-70.576-1.283l-173.233 157.835c-20.531 19.248-21.815 51.328-3.85 71.86 19.248 20.531 51.328 21.815 71.86 2.566l137.303-125.754 292.571 292.571c20.531 20.531 52.612 20.531 73.143 0s20.531-52.612 0-73.143z" />
<glyph unicode="&#xe903;" glyph-name="pin" d="M512 960c-208.583 0-378.27-169.688-378.27-378.27 0-68.667 30.796-142.519 32.086-145.634 9.946-23.609 29.572-60.278 43.724-81.773l259.36-392.978c10.614-16.11 26.323-25.344 43.101-25.344s32.487 9.234 43.101 25.322l259.382 393.001c14.174 21.495 33.777 58.165 43.724 81.773 1.291 3.093 32.064 76.945 32.064 145.634 0 208.583-169.688 378.27-378.27 378.27zM817.175 453.363c-8.878-21.161-27.146-55.272-39.852-74.542l-259.382-393.001c-5.118-7.766-6.742-7.766-11.86 0l-259.382 393.001c-12.705 19.27-30.974 53.403-39.852 74.564-0.378 0.912-28.615 68.89-28.615 128.345 0 184.040 149.728 333.768 333.768 333.768s333.768-149.728 333.768-333.768c0-59.544-28.304-127.7-28.593-128.367zM512 781.968c-110.433 0-200.261-89.85-200.261-200.261s89.828-200.261 200.261-200.261c110.433 0 200.261 89.85 200.261 200.261s-89.828 200.261-200.261 200.261zM512 425.949c-85.867 0-155.758 69.869-155.758 155.758s69.891 155.758 155.758 155.758 155.758-69.869 155.758-155.758-69.891-155.758-155.758-155.758z" />
<glyph unicode="&#xe904;" glyph-name="letter" d="M1022.456-56.248c0.924 1.828 1.488 3.978 1.544 6.254v585.994c-0.158 4.309-2.092 8.136-5.088 10.794l-0.016 0.014-146.84 120.88v155.72c0 0.002 0 0.005 0 0.008 0 7.728-6.264 13.992-13.992 13.992-0.003 0-0.006 0-0.008 0h-192.128l-145.032 119.392c-2.395 1.994-5.504 3.204-8.896 3.204s-6.501-1.21-8.919-3.222l0.023 0.018-145.032-119.392h-192.12c-0.002 0-0.005 0-0.008 0-7.728 0-13.992-6.264-13.992-13.992 0-0.003 0-0.006 0-0.008v0-155.72l-146.848-120.912c-3.007-2.662-4.941-6.478-5.103-10.748l-0.001-0.028v-585.944c0.071-7.715 6.29-13.953 13.99-14.056h996.010c5.427 0.027 10.121 3.14 12.419 7.672l0.037 0.080zM28 510.32l343.056-220.64-343.056-308.248zM395.472 274l108.952-70.064c2.153-1.352 4.771-2.154 7.576-2.154s5.423 0.802 7.636 2.189l-0.060-0.035 108.952 70.072 344.944-310.008h-922.944zM652.944 289.704l343.056 220.616v-528.888zM986.28 537.36l-114.224-73.456v167.52zM512 927.888l109.888-90.48h-219.768zM179.952 809.408h664.104v-363.512l-332.056-213.536-332.048 213.536v363.512zM151.952 463.904l-114.232 73.456 114.232 94.064zM660.912 736.248h133.144c7.732 0 14 6.268 14 14s-6.268 14-14 14v0h-133.144c-7.732 0-14-6.268-14-14s6.268-14 14-14v0zM606.752 667.896h187.304c7.732 0 14 6.268 14 14s-6.268 14-14 14v0h-187.304c-7.732 0-14-6.268-14-14s6.268-14 14-14v0zM297.752 599.536h496.304c7.732 0 14 6.268 14 14s-6.268 14-14 14v0h-496.304c-7.732 0-14-6.268-14-14s6.268-14 14-14v0zM229.952 531.2h564.104c7.732 0 14 6.268 14 14s-6.268 14-14 14v0h-564.104c-7.732 0-14-6.268-14-14s6.268-14 14-14v0zM229.952 462.832h564.104c7.732 0 14 6.268 14 14s-6.268 14-14 14v0h-564.104c-7.732 0-14-6.268-14-14s6.268-14 14-14v0zM675 422.48h-326c-7.732 0-14-6.268-14-14s6.268-14 14-14v0h326c7.732 0 14 6.268 14 14s-6.268 14-14 14v0zM566.312 354.128h-108.624c-7.732 0-14-6.268-14-14s6.268-14 14-14v0h108.624c7.732 0 14 6.268 14 14s-6.268 14-14 14v0z" />
<glyph unicode="&#xe905;" glyph-name="plus" d="M984 488h-432v432c0 22.092-17.908 40-40 40s-40-17.908-40-40v-432h-432c-22.092 0-40-17.908-40-40s17.908-40 40-40h432v-432c0-22.092 17.908-40 40-40s40 17.908 40 40v432h432c22.092 0 40 17.908 40 40s-17.908 40-40 40z" />
<glyph unicode="&#xe906;" glyph-name="phone-call" d="M943.158 285.776c-63.166 0-125.035 9.863-183.726 29.265-28.618 9.863-61.064 2.264-79.925-16.924l-116.251-87.795c-133.337 71.141-218.706 156.457-288.983 288.93l85.422 113.502c21.504 21.557 29.212 52.979 19.996 82.459-19.458 58.962-29.373 120.887-29.373 183.944 0 44.572-36.27 80.842-80.842 80.842h-188.633c-44.572 0-80.842-36.27-80.842-80.842 0-520.030 423.128-943.158 943.158-943.158 44.572 0 80.842 36.27 80.842 80.842v188.092c0 44.572-36.27 80.842-80.842 80.842zM970.106 16.842c0-14.875-12.126-26.948-26.948-26.948-490.336 0-889.264 398.928-889.264 889.264 0 14.875 12.126 26.948 26.948 26.948h188.633c14.822 0 26.948-12.073 26.948-26.948 0-68.824 10.78-136.409 31.905-200.489 3.125-10.077 0.594-20.481-9.269-30.72l-98.089-129.886c-6.197-8.246-7.167-19.293-2.478-28.456 79.925-156.995 176.991-254.115 335.119-335.119 9.107-4.742 20.264-3.772 28.509 2.478l132.69 100.568c7.223 7.114 17.838 9.592 27.433 6.414 64.459-21.289 132.043-32.067 200.921-32.067 14.822 0 26.948-12.073 26.948-26.948v-188.092z" />
<glyph unicode="&#xe907;" glyph-name="envelope" d="M78.030 584.187c-17.486-16.202-27.453-38.942-27.519-62.78v-489.861c-0.264-52.412 41.939-95.15 94.349-95.545h734.28c52.41 0.395 94.613 43.134 94.349 95.545v489.861c-0.068 23.854-10.049 46.608-27.553 62.814l-387.598 357.704c-26.171 24.098-66.451 24.098-92.622 0l-387.65-357.704zM403.532 272.238l-309.538-273.116c-6.049 9.737-9.268 20.963-9.298 32.424v488.681zM144.86-29.815c-8.773 0.040-17.426 2.055-25.314 5.897l311.453 274.79 49.362-38.389c18.486-14.752 44.707-14.794 63.24-0.102l49.482 38.491 311.369-274.79c-7.888-3.842-16.541-5.857-25.314-5.897zM930.006-0.878l-309.54 273.116 318.838 247.99v-488.683c-0.030-11.461-3.249-22.688-9.298-32.422zM488.942 916.886c13.029 12.032 33.119 12.032 46.149 0l387.632-357.756c1.582-1.614 3.061-3.327 4.427-5.128l-404.74-314.718c-6.143-4.869-14.842-4.827-20.937 0.102l-404.624 314.702c1.354 1.763 2.82 3.437 4.393 5.007z" />
<glyph unicode="&#xe908;" glyph-name="clock" d="M512 960c-282.312 0-512-229.688-512-512s229.688-512 512-512 512 229.688 512 512-229.688 512-512 512zM512 0c-247.032 0-448 200.968-448 448s200.968 448 448 448 448-200.968 448-448-200.968-448-448-448zM544 767.999h-64v-333.249l201.375-201.375 45.25 45.25-182.625 182.625z" />
<glyph unicode="&#xe909;" glyph-name="uniE909" d="M483.408 953.474c-8.84 8.54-22.929 8.293-31.469-0.547-8.329-8.625-8.329-22.297 0-30.92l473.85-473.894-473.894-473.85c-8.84-8.54-9.086-22.627-0.547-31.469 8.54-8.84 22.627-9.084 31.469-0.547 0.186 0.179 0.367 0.361 0.547 0.547l489.607 489.607c8.688 8.69 8.688 22.777 0 31.469l-489.563 489.605z" />
<glyph unicode="&#xe90a;" glyph-name="uniE90A" d="M572.428 463.867l-489.607 489.607c-8.84 8.54-22.929 8.293-31.469-0.547-8.329-8.625-8.329-22.297 0-30.922l473.85-473.894-473.894-473.848c-8.84-8.54-9.084-22.627-0.547-31.469 8.54-8.84 22.627-9.084 31.469-0.547 0.186 0.179 0.367 0.361 0.547 0.547l489.607 489.607c8.698 8.677 8.719 22.765 0.044 31.467z" />
<glyph unicode="&#xe90b;" glyph-name="uniE90B" d="M467.652-63.75c-12.291-0.023-22.272 9.925-22.295 22.216-0.010 5.925 2.343 11.611 6.539 15.796l473.894 473.85-473.894 473.848c-8.54 8.84-8.293 22.929 0.547 31.469 8.625 8.329 22.297 8.329 30.92 0l489.607-489.607c8.688-8.69 8.688-22.777 0-31.469l-489.605-489.605c-4.171-4.162-9.821-6.499-15.713-6.499z" />
<glyph unicode="&#xe90c;" glyph-name="uniE90C" d="M67.065-63.75c-12.291-0.023-22.272 9.925-22.295 22.216-0.010 5.925 2.343 11.611 6.539 15.796l473.894 473.85-473.894 473.848c-8.702 8.702-8.702 22.81 0 31.513s22.81 8.702 31.513 0l489.607-489.607c8.688-8.69 8.688-22.777 0-31.469l-489.607-489.605c-4.175-4.187-9.844-6.543-15.756-6.543z" />
<glyph unicode="&#xe90d;" glyph-name="left" d="M1002.666 469.334h-929.832l283.584 283.584c8.334 8.334 8.334 21.834 0 30.166-8.334 8.334-21.834 8.334-30.166 0l-320-320c-8.334-8.334-8.334-21.834 0-30.166l320-320c4.166-4.166 9.626-6.25 15.084-6.25s10.916 2.084 15.084 6.25c8.334 8.334 8.334 21.834 0 30.166l-283.586 283.582h929.834c11.792 0 21.334 9.542 21.334 21.334s-9.544 21.334-21.336 21.334z" />
<glyph unicode="&#xe90e;" glyph-name="right-arrow-angle" d="M798.813 480.478l-512.425 466.975c-16.815 16.73-44.086 16.73-60.901 0s-16.815-43.872 0-60.602l481.528-438.851-481.485-438.85c-16.815-16.73-16.815-43.874 0-60.602s44.086-16.729 60.9 0l512.426 466.975c8.962 8.918 12.805 20.742 12.206 32.434 0.557 11.737-3.284 23.559-12.249 32.521z" />
<glyph unicode="&#xe90f;" glyph-name="user" d="M504.702 466.735c67.765 0 126.437 24.305 174.39 72.258 47.937 47.945 72.25 106.609 72.25 174.382 0 67.75-24.305 126.422-72.258 174.382-47.953 47.937-106.625 72.242-174.382 72.242-67.773 0-126.437-24.305-174.382-72.25s-72.258-106.617-72.258-174.375c0-67.773 24.312-126.445 72.258-174.39 47.961-47.937 106.633-72.25 174.382-72.25zM372.757 845.321c36.789 36.789 79.945 54.672 131.945 54.672 51.992 0 95.156-17.883 131.953-54.672 36.789-36.797 54.68-79.961 54.68-131.945 0-52-17.891-95.156-54.68-131.953-36.797-36.797-79.961-54.68-131.953-54.68-51.984 0-95.14 17.891-131.945 54.68-36.797 36.789-54.687 79.953-54.687 131.953 0 51.984 17.891 95.148 54.687 131.945zM936.256 172.595c-1.383 19.953-4.18 41.719-8.297 64.703-4.156 23.156-9.508 45.047-15.914 65.055-6.625 20.68-15.617 41.101-26.75 60.672-11.539 20.312-25.102 38-40.32 52.555-15.914 15.227-35.398 27.469-57.93 36.398-22.453 8.883-47.336 13.383-73.953 13.383-10.453 0-20.562-4.289-40.086-17-12.016-7.836-26.070-16.898-41.758-26.922-13.414-8.547-31.586-16.555-54.031-23.805-21.898-7.086-44.133-10.68-66.086-10.68-21.937 0-44.172 3.594-66.086 10.68-22.422 7.242-40.601 15.25-53.992 23.797-15.539 9.93-29.602 18.992-41.797 26.937-19.508 12.711-29.617 17-40.070 17-26.625 0-51.5-4.508-73.945-13.398-22.516-8.914-42.008-21.156-57.937-36.398-15.219-14.562-28.781-32.242-40.312-52.547-11.117-19.57-20.117-39.984-26.742-60.68-6.398-20.008-11.75-41.891-15.906-65.047-4.125-22.953-6.914-44.726-8.297-64.726-1.359-19.555-2.047-39.906-2.047-60.469 0-53.453 16.992-96.726 50.5-128.64 33.094-31.492 76.875-47.461 130.133-47.461h493.062c53.242 0 97.023 15.969 130.125 47.461 33.516 31.891 50.508 75.18 50.508 128.648-0.008 20.633-0.703 40.984-2.070 60.484zM846.444 26.939c-21.867-20.812-50.898-30.93-88.758-30.93h-493.054c-37.867 0-66.898 10.117-88.758 30.922-21.445 20.414-31.867 48.281-31.867 85.172 0 19.187 0.633 38.133 1.898 56.32 1.234 17.844 3.758 37.445 7.5 58.273 3.695 20.57 8.398 39.875 13.992 57.351 5.367 16.758 12.687 33.351 21.766 49.336 8.664 15.234 18.633 28.305 29.633 38.836 10.289 9.852 23.258 17.914 38.539 23.961 14.133 5.594 30.016 8.656 47.258 9.117 2.102-1.117 5.844-3.25 11.906-7.203 12.336-8.039 26.555-17.211 42.273-27.25 17.719-11.297 40.547-21.5 67.82-30.305 27.883-9.016 56.32-13.594 84.547-13.594s56.672 4.578 84.539 13.586c27.297 8.82 50.117 19.016 67.859 30.328 16.086 10.281 29.906 19.187 42.242 27.234 6.062 3.945 9.805 6.086 11.906 7.203 17.25-0.461 33.133-3.523 47.273-9.117 15.273-6.047 28.242-14.117 38.531-23.961 11-10.523 20.969-23.594 29.633-38.844 9.086-15.977 16.414-32.578 21.773-49.32 5.602-17.5 10.312-36.797 14-57.351 3.734-20.867 6.266-40.476 7.5-58.289v-0.016c1.273-18.117 1.914-37.055 1.922-56.297-0.008-36.898-10.43-64.758-31.875-85.164z" />
<glyph unicode="&#xe910;" glyph-name="right" d="M1017.75 463.084l-320 320c-8.334 8.334-21.834 8.334-30.166 0-8.334-8.334-8.334-21.834 0-30.166l283.584-283.584h-929.834c-11.792 0-21.334-9.542-21.334-21.334s9.542-21.334 21.334-21.334h929.834l-283.584-283.582c-8.334-8.334-8.334-21.834 0-30.166 4.166-4.166 9.626-6.25 15.084-6.25s10.916 2.084 15.084 6.25l320 320c8.332 8.332 8.332 21.832-0.002 30.166z" />
<glyph unicode="&#xe911;" glyph-name="left-arrow" d="M331.295 447.762l444.985 444.985c15.384 15.386 15.384 40.33 0 55.716-15.388 15.381-40.33 15.381-55.716 0l-472.843-472.843c-15.381-15.386-15.381-40.33 0-55.716l472.843-472.843c15.654-15.118 40.598-14.684 55.716 0.97 14.746 15.27 14.746 39.478 0 54.746l-444.985 444.985z" />
<glyph unicode="&#xe912;" glyph-name="uniE912" d="M98.244 447.874l473.907 473.863c8.84 8.54 9.086 22.627 0.547 31.47-8.54 8.84-22.627 9.086-31.47 0.547-0.186-0.179-0.367-0.361-0.547-0.547l-489.618-489.62c-8.688-8.69-8.688-22.778 0-31.47l489.618-489.618c8.84-8.54 22.93-8.294 31.47 0.547 8.331 8.625 8.331 22.298 0 30.923l-473.907 473.905z" />
<glyph unicode="&#xe913;" glyph-name="uniE913" d="M972.749 953.25c-8.69 8.688-22.778 8.688-31.47 0l-489.618-489.62c-8.688-8.69-8.688-22.778 0-31.47l489.618-489.618c8.84-8.54 22.93-8.296 31.47 0.545 8.331 8.625 8.331 22.3 0 30.923l-473.907 473.863 473.907 473.863c8.703 8.68 8.719 22.771 0.040 31.474-0.013 0.013-0.027 0.027-0.040 0.040z" />
<glyph unicode="&#xe914;" glyph-name="uniE914" d="M556.394-64c-5.907-0.010-11.576 2.326-15.757 6.499l-489.62 489.618c-8.688 8.69-8.688 22.778 0 31.47l489.62 489.62c8.54 8.84 22.627 9.086 31.47 0.547 8.84-8.54 9.086-22.627 0.547-31.47-0.179-0.186-0.361-0.367-0.547-0.547l-473.863-473.863 473.907-473.863c8.703-8.68 8.719-22.771 0.040-31.474-4.185-4.194-9.871-6.547-15.796-6.537z" />
<glyph unicode="&#xe915;" glyph-name="uniE915" d="M956.992-64c-5.907-0.010-11.576 2.326-15.757 6.499l-489.62 489.618c-8.688 8.69-8.688 22.778 0 31.47l489.62 489.62c8.54 8.84 22.627 9.084 31.47 0.547 8.84-8.54 9.084-22.627 0.547-31.47-0.179-0.186-0.361-0.367-0.547-0.547l-473.863-473.863 473.907-473.863c8.703-8.68 8.719-22.771 0.040-31.474-4.185-4.194-9.871-6.547-15.796-6.537z" />
<glyph unicode="&#xe916;" glyph-name="phone-call-1" d="M985.114 158.88l-200.646 200.644c-23.952 23.95-62.916 23.95-86.87 0l-52.176-52.176c-16.348-16.348-21.516-39.69-15.546-60.482l-19.686-19.686c-0.006-0.006-0.010-0.010-0.016-0.016-13.98-13.996-101.046 7.482-206.29 112.726-105.228 105.226-126.712 192.278-112.732 206.284 0 0.004 0.004 0.004 0.004 0.004l19.704 19.702c5.562-1.598 11.302-2.414 17.046-2.414 15.73 0 31.458 5.986 43.436 17.96l52.176 52.176c23.95 23.95 23.95 62.916 0 86.868l-200.646 200.648c-11.6 11.6-27.026 17.988-43.432 17.988-16.41 0-31.83-6.392-43.432-17.988l-52.18-52.18c-16.348-16.348-21.516-39.692-15.546-60.482 0 0-16.688-16.848-17.518-17.912-55.506-61.698-65.92-158.836-29.122-274.974 36.034-113.714 113.714-234.176 218.734-339.19 105.016-105.016 225.478-182.696 339.192-218.734 45.68-14.474 88.414-21.646 127.22-21.646 63.626 0 116.674 19.296 154.7 57.32l10.948 10.948c5.48-1.576 11.204-2.426 17.064-2.426 16.41 0 31.834 6.392 43.432 17.988l52.18 52.18c23.95 23.95 23.95 62.918 0.002 86.87zM179.44 877.686l200.648-200.65-52.148-52.204c0 0-0.010 0.010-0.028 0.028l-200.65 200.646 52.178 52.18zM818.058 36.754c-0.004-0.004-0.006-0.006-0.010-0.010-44.188-44.182-122.292-51.48-219.922-20.54-104.504 33.116-216.13 105.428-314.312 203.612-98.186 98.184-170.498 209.806-203.612 314.312-30.94 97.634-23.642 175.74 20.55 219.934l5.544 5.544 155.714-155.712-14.282-14.282c-0.010-0.010-0.018-0.022-0.030-0.034-59.17-59.244 11.926-192.294 112.756-293.124 75.468-75.468 168.986-134.28 236.102-134.28 22.568 0 42.152 6.65 57.056 21.556 0.006 0.006 0.010 0.010 0.016 0.016l14.266 14.266 155.714-155.712-5.55-5.546zM889.504 63.264l-200.648 200.648 52.176 52.176 200.648-200.644c0 0-52.158-52.198-52.176-52.18zM777.636 713.632c-58.418 58.418-136.084 90.588-218.688 90.586-16.962 0-30.712-13.75-30.712-30.712s13.752-30.712 30.712-30.712c66.2 0.004 128.438-25.78 175.256-72.594 46.812-46.812 72.59-109.050 72.588-175.248 0-16.962 13.75-30.716 30.712-30.716 16.96 0 30.712 13.75 30.712 30.708 0.002 82.608-32.17 160.27-90.58 218.688zM887.79 823.786c-87.846 87.842-204.634 136.218-328.854 136.214-16.962 0-30.712-13.752-30.712-30.712 0-16.962 13.752-30.712 30.712-30.712 107.814 0.004 209.176-41.984 285.418-118.222 76.236-76.236 118.222-177.598 118.22-285.412 0-16.962 13.75-30.712 30.712-30.712 16.96 0 30.712 13.75 30.712 30.708 0.004 124.224-48.372 241.008-136.208 328.848zM667.474 603.48c-29.412 29.412-66.93 44.954-108.512 44.954 0 0-0.010 0-0.012 0-16.962-0.004-30.712-13.752-30.708-30.716 0.004-16.962 13.756-30.712 30.716-30.708 0.004 0 0.006 0 0.010 0 25.288 0 47.186-9.072 65.078-26.962 17.638-17.64 26.962-40.15 26.958-65.088-0.004-16.962 13.75-30.712 30.708-30.716h0.004c16.962 0 30.708 13.75 30.712 30.708 0.002 41.584-15.54 79.112-44.954 108.528z" />
<glyph unicode="&#xe917;" glyph-name="message" d="M1023.218 564.798c-0.002 1.54-0.346 3.866-0.944 5.206-1.574 5.708-5.072 10.922-10.308 14.562l-146.584 101.896v109.232c0 14.48-11.744 26.224-26.224 26.224h-168.638l-143.486 99.756c-8.968 6.242-20.874 6.268-29.87 0.052l-144.412-99.808h-167.9c-14.484 0-26.224-11.744-26.224-26.224v-107.946l-147.296-101.802c-7.246-5.008-11.166-13.014-11.29-21.2-0.008-0.154-0.042-0.3-0.042-0.46l0.782-568.47c0.010-6.954 2.782-13.62 7.704-18.532 4.916-4.902 11.576-7.654 18.52-7.654 0.014 0 0.024 0 0.036 0l970.77 1.334c14.48 0.020 26.208 11.778 26.188 26.26l-0.782 567.574zM865.38 622.584l83.796-58.236-83.796-58.256v116.492zM512.030 868.232l66.62-46.312h-133.624l67.004 46.312zM211.076 769.47h601.856v-299.842l-202.072-140.484-82.388 63.908c-0.128 0.1-0.238 0.162-0.362 0.252-9.208 6.908-22.232 7.162-31.788-0.252l-82.986-64.37-202.26 139.786v301.002zM158.628 623.994v-119.28l-86.292 59.638 86.292 59.642zM52.516 514.266l317.338-219.31-316.698-245.648-0.64 464.958zM103.75 22.182l408.648 316.968 407.182-315.846-815.83-1.122zM654.288 295.458l316.552 220.072 0.64-466.118-317.192 246.046zM689.54 664.574h-355.072c-14.48 0-26.224-11.744-26.224-26.224s11.744-26.224 26.224-26.224h355.072c14.484 0 26.224 11.744 26.224 26.224s-11.74 26.224-26.224 26.224zM689.54 528.21h-355.072c-14.48 0-26.224-11.744-26.224-26.224s11.744-26.224 26.224-26.224h355.072c14.484 0 26.224 11.744 26.224 26.224s-11.74 26.224-26.224 26.224z" />
<glyph unicode="&#xe918;" glyph-name="shopping-cart" d="M307.407 285.773h564.225c63.978 0 116.17 52.192 116.17 116.17v237.391c0 0.21 0 0.631 0 0.842 0 0.631 0 1.052 0 1.684 0 0.421 0 0.842-0.21 1.263 0 0.421-0.21 1.052-0.21 1.473s-0.21 0.842-0.21 1.263c-0.21 0.421-0.21 0.842-0.421 1.473-0.21 0.421-0.21 0.842-0.421 1.263s-0.21 0.842-0.421 1.263c-0.21 0.421-0.421 0.842-0.631 1.473-0.21 0.421-0.421 0.842-0.631 1.052-0.21 0.421-0.421 0.842-0.631 1.263s-0.421 0.631-0.631 1.052c-0.21 0.421-0.631 0.842-0.842 1.263s-0.421 0.631-0.842 1.052c-0.21 0.421-0.631 0.631-0.842 1.052s-0.631 0.631-0.842 1.052-0.631 0.631-0.842 0.842c-0.421 0.421-0.631 0.631-1.052 1.052-0.421 0.21-0.631 0.631-1.052 0.842s-0.842 0.631-1.263 0.842c-0.421 0.21-0.631 0.421-1.052 0.631s-0.842 0.421-1.263 0.842c-0.421 0.21-0.842 0.421-1.263 0.631s-0.842 0.421-1.263 0.631-0.842 0.421-1.263 0.631-0.842 0.21-1.263 0.421c-0.421 0.21-1.052 0.421-1.473 0.421s-0.842 0.21-1.052 0.21-1.052 0.21-1.684 0.21c-0.21 0-0.421 0.21-0.842 0.21l-715.12 98.703v99.755c0 1.052 0 2.105-0.21 2.946 0 0.21 0 0.421-0.21 0.842 0 0.631-0.21 1.263-0.21 1.894-0.21 0.631-0.21 1.052-0.421 1.684 0 0.421-0.21 0.631-0.21 1.052-0.21 0.631-0.421 1.263-0.631 1.894 0 0.21-0.21 0.631-0.21 0.842-0.21 0.631-0.421 1.052-0.842 1.684-0.21 0.21-0.21 0.631-0.421 0.842-0.21 0.421-0.421 0.842-0.842 1.263-0.21 0.421-0.421 0.631-0.631 1.052s-0.421 0.631-0.631 1.052-0.631 0.842-0.842 1.263c-0.21 0.21-0.421 0.421-0.631 0.631-0.421 0.421-0.842 0.842-1.263 1.263-0.21 0.21-0.421 0.421-0.631 0.631-0.421 0.421-0.842 0.842-1.473 1.263-0.21 0.21-0.631 0.421-0.842 0.631-0.421 0.421-0.842 0.631-1.263 1.052-0.631 0.421-1.263 0.842-1.684 1.052-0.21 0.21-0.421 0.21-0.631 0.421-0.842 0.421-1.894 0.842-2.736 1.263l-155.104 65.24c-14.521 6.103-31.147-0.631-37.25-15.153s0.631-31.147 15.153-37.25l137.636-58.085v-622.521c0-58.927 44.195-107.752 101.228-115.118-10.312-17.257-16.415-37.461-16.415-58.927 0-63.346 51.561-114.697 114.697-114.697s114.697 51.561 114.697 114.697c0 21.045-5.682 41.038-15.784 57.875h255.49c-10.102-17.047-15.784-36.829-15.784-57.875 0-63.346 51.561-114.697 114.697-114.697s114.697 51.561 114.697 114.697-51.561 114.697-114.697 114.697h-536.656c-32.831 0-59.348 26.728-59.348 59.348v77.026c17.257-10.102 37.671-15.994 59.348-15.994zM448.831 50.907c0-31.989-26.096-57.875-57.875-57.875s-57.875 26.096-57.875 57.875 26.096 57.875 57.875 57.875 57.875-25.886 57.875-57.875zM902.148 50.907c0-31.989-26.096-57.875-57.875-57.875s-57.875 26.096-57.875 57.875 26.096 57.875 57.875 57.875 57.875-25.886 57.875-57.875zM871.632 342.596h-564.225c-32.831 0-59.348 26.728-59.348 59.348v307.051l682.921-94.073v-212.768c0-33.041-26.728-59.558-59.348-59.558z" />
<glyph unicode="&#xe919;" glyph-name="confirmation" d="M734.165 584.832c-16.64 16.661-43.691 16.661-60.331 0l-183.168-183.147-76.501 76.48c-16.64 16.661-43.691 16.661-60.331 0-16.661-16.661-16.661-43.669 0-60.331l106.667-106.667c8.32-8.341 19.243-12.501 30.165-12.501s21.845 4.16 30.165 12.501l213.333 213.333c16.661 16.661 16.661 43.669 0 60.331zM981.333 490.667c-23.552 0-42.667-19.115-42.667-42.667 0-235.264-191.403-426.667-426.667-426.667s-426.667 191.403-426.667 426.667 191.403 426.667 426.667 426.667c114.539 0 222.059-44.757 302.784-126.037 16.576-16.747 43.605-16.832 60.331-0.213 16.725 16.597 16.811 43.605 0.213 60.331-96.853 97.536-225.899 151.253-363.328 151.253-282.325 0-512-229.675-512-512s229.675-512 512-512 512 229.675 512 512c0 23.552-19.115 42.667-42.667 42.667z" />
<glyph unicode="&#xe91a;" glyph-name="paper-plane" d="M373.333 208.555v-197.888c0-13.824 8.875-26.069 22.016-30.421 3.285-1.067 6.656-1.579 9.984-1.579 9.984 0 19.627 4.693 25.771 13.056l115.755 157.525zM1010.56 954.069c-9.813 6.955-22.699 7.893-33.365 2.304l-960-501.333c-11.349-5.931-18.048-18.048-17.109-30.805 0.981-12.8 9.472-23.723 21.547-27.861l266.88-91.221 568.363 485.973-439.808-529.877 447.275-152.875c3.328-1.109 6.827-1.707 10.325-1.707 5.803 0 11.563 1.579 16.64 4.651 8.107 4.949 13.611 13.269 15.019 22.613l117.333 789.333c1.749 11.947-3.285 23.808-13.099 30.805z" />
<glyph unicode="&#xe91b;" glyph-name="chat" d="M937.058 346.851c-8.28 20.478-31.596 30.376-52.076 22.092-20.482-8.28-30.374-31.594-22.094-52.076l47.11-116.532-139.916 61.678c-10.128 4.464-21.654 4.534-31.834 0.19-47.816-20.402-99.040-30.746-152.248-30.746-214.146 0-357.999 167.67-357.999 324.271 0 178.804 160.598 324.271 357.999 324.271s357.999-145.468 357.999-324.271c0-13.95-1.3-30.654-3.562-45.826-3.26-21.85 11.81-42.204 33.66-45.464 21.852-3.268 42.206 11.81 45.464 33.66 2.862 19.18 4.438 39.648 4.438 57.63 0 108.66-46.012 210.616-129.566 287.085-82.564 75.568-192.102 117.186-308.433 117.186s-225.868-41.618-308.433-117.184c-74.664-68.336-119.32-157.032-127.982-252.67-93.914-62.192-149.584-161.85-149.584-269.195 0-67.056 21.126-130.68 61.34-185.434l-58.424-144.524c-6.102-15.092-2.448-32.378 9.242-43.71 7.618-7.388 17.656-11.284 27.85-11.284 5.446 0.002 10.938 1.112 16.126 3.4l168.458 74.26c42.376-15.774 87.17-23.76 133.406-23.76 1 0 1.982 0.078 2.964 0.15 66.874 0.506 131.888 18.096 188.196 51.014 50.436 29.488 91.924 69.996 121.010 117.834 28.398 5.1 56.154 12.804 83.094 23.102l214.602-94.6c5.19-2.286 10.68-3.4 16.126-3.4 10.194 0.002 20.234 3.898 27.852 11.284 11.69 11.332 15.344 28.616 9.242 43.71l-84.026 207.858zM358.003 70.002c-0.546 0-1.078-0.060-1.62-0.082-40.844 0.208-80.156 8.236-116.87 23.9-10.178 4.346-21.704 4.276-31.832-0.19l-93.674-41.292 30.218 74.75c5.586 13.818 3.024 29.598-6.644 40.94-37.67 44.194-57.58 97.072-57.58 152.924 0 63.922 26.89 124.488 73.938 170.412 14.648-79.85 55.978-156.234 118.324-216.238 77.582-74.666 180.202-117.922 291.011-123.13-52.024-51.21-126.472-81.994-205.272-81.994zM624.001 554.001c0-22.091-17.909-40-40-40s-40 17.909-40 40c0 22.091 17.909 40 40 40s40-17.909 40-40zM784 554.001c0-22.091-17.909-40-40-40s-40 17.909-40 40c0 22.091 17.909 40 40 40s40-17.909 40-40zM464.001 554.001c0-22.091-17.909-40-40-40s-40 17.909-40 40c0 22.091 17.909 40 40 40s40-17.909 40-40z" />
<glyph unicode="&#xe91c;" glyph-name="message-1" d="M990.204 735.26h-701.816c-18.666 0-33.796-15.13-33.796-33.796v-506.93c0-18.666 15.13-33.796 33.796-33.796h701.818c18.678 0 33.796 15.128 33.796 33.796v506.932c-0.002 18.666-15.132 33.794-33.798 33.794zM898.010 667.67l-267.67-226.688-253.466 226.688h521.136zM956.41 228.33h-634.228v397.568l285.018-254.908c12.56-11.242 31.508-11.49 44.362-0.598l304.846 258.162v-400.224zM191.508 481.796h-58.58c-18.666 0-33.796-15.13-33.796-33.796s15.13-33.796 33.796-33.796h58.578c18.666 0 33.796 15.13 33.796 33.796s-15.128 33.796-33.794 33.796zM191.508 344.36h-157.712c-18.666 0-33.796-15.128-33.796-33.794s15.13-33.796 33.796-33.796h157.712c18.666 0 33.796 15.13 33.796 33.796-0.002 18.666-15.13 33.794-33.796 33.794zM191.508 619.23h-157.712c-18.666 0-33.796-15.13-33.796-33.796s15.13-33.796 33.796-33.796h157.712c18.666 0 33.796 15.13 33.796 33.796s-15.13 33.796-33.796 33.796z" />
<glyph unicode="&#xe91d;" glyph-name="unlock" d="M768 533.334h-512c-58.838 0-106.666-47.872-106.666-106.666v-384c0-58.796 47.828-106.668 106.666-106.668h512c58.838 0 106.666 47.872 106.666 106.666v384c0 58.796-47.828 106.668-106.666 106.668zM832 42.666c0-35.286-28.714-64-64-64h-512c-35.286 0-64 28.714-64 64v384c0 35.286 28.714 64 64 64h512c35.286 0 64-28.714 64-64v-384zM768 533.334h-490.666v149.334c0 129.408 105.302 234.666 234.666 234.666s234.666-105.258 234.666-234.666c0-11.776 9.558-21.334 21.334-21.334s21.334 9.558 21.334 21.334c0 152.916-124.416 277.332-277.334 277.332s-277.334-124.416-277.334-277.334v-170.666c0-11.776 9.558-21.334 21.334-21.334h512c11.776 0 21.334 9.558 21.334 21.334s-9.558 21.334-21.334 21.334zM512 234.666c-11.776 0-21.334-9.558-21.334-21.334v-128c0-11.776 9.558-21.334 21.334-21.334s21.334 9.558 21.334 21.334v128c0 11.778-9.558 21.334-21.334 21.334zM512 405.334c-58.838 0-106.666-47.872-106.666-106.666s47.828-106.668 106.666-106.668c58.838 0 106.666 47.872 106.666 106.666s-47.828 106.668-106.666 106.668zM512 234.666c-35.286 0-64 28.714-64 64s28.714 64 64 64c35.286 0 64-28.714 64-64 0-35.284-28.714-64-64-64z" />
<glyph unicode="&#xe91e;" glyph-name="play-button" d="M879.393 468.078l-707.064 487.631c-7.485 5.145-17.189 5.681-25.186 1.512-8.022-4.218-13.044-12.508-13.044-21.578v-975.261c0-9.070 5.023-17.384 13.044-21.602 3.56-1.853 7.461-2.779 11.337-2.779 4.852 0 9.679 1.463 13.849 4.316l707.064 487.631c6.607 4.559 10.533 12.044 10.533 20.066s-3.95 15.507-10.533 20.066zM182.861 6.804v882.392l639.747-441.208-639.747-441.184z" />
<glyph unicode="&#xe91f;" glyph-name="play-button-1" d="M73.143 960l877.714-512-877.714-512z" />
<glyph unicode="&#xe920;" glyph-name="add" d="M1007.484 464.516h-478.968v478.968c0 9.121-7.395 16.516-16.516 16.516s-16.516-7.395-16.516-16.516v-478.968h-478.968c-9.121 0-16.516-7.395-16.516-16.516s7.395-16.516 16.516-16.516h478.968v-478.968c0-9.121 7.395-16.516 16.516-16.516s16.516 7.395 16.516 16.516v478.968h478.968c9.121 0 16.516 7.395 16.516 16.516s-7.395 16.516-16.516 16.516z" />
<glyph unicode="&#xe921;" glyph-name="substract" d="M0 472.381h1024v-48.762h-1024v48.762z" />
<glyph unicode="&#xe922;" glyph-name="minus-horizontal-straight-line" d="M0 479.008h1024v-62.016h-1024v62.016z" />
<glyph unicode="&#xe923;" glyph-name="right-arrow-1" d="M743.156 728.843l-45.612-45.614 202.973-202.975h-900.517v-64.509h900.517l-202.973-202.973 45.612-45.614 280.844 280.844z" />
<glyph unicode="&#xe924;" glyph-name="envelope-1" d="M927.999 832.001h-831.999c-52.938 0-96.001-43.063-96.001-96.001v-576c0-52.938 43.063-96.001 96.001-96.001h831.999c52.938 0 96.001 43.063 96.001 96.001v576c0 52.938-43.063 96.001-96.001 96.001zM927.999 768.001c4.348 0 8.484-0.902 12.265-2.477l-428.264-371.18-428.267 371.18c3.781 1.573 7.917 2.477 12.265 2.477zM927.999 128.001h-831.999c-17.656 0-32.001 14.343-32.001 32.001v537.905l427.031-370.094c6.032-5.218 13.501-7.813 20.969-7.813s14.937 2.593 20.969 7.813l427.031 370.094v-537.907c-0.002-17.656-14.345-31.999-32.001-31.999z" />
<glyph unicode="&#xe925;" glyph-name="search" d="M1017.75-27.584l-311.572 311.574c64.716 71.854 104.49 166.592 104.49 270.678-0.002 223.498-181.834 405.332-405.334 405.332s-405.334-181.834-405.334-405.334 181.834-405.334 405.334-405.334c104.086 0 198.822 39.774 270.678 104.49l311.572-311.572c4.166-4.166 9.626-6.25 15.084-6.25s10.916 2.084 15.084 6.25c8.332 8.334 8.332 21.834-0.002 30.166zM405.334 192c-199.958 0-362.666 162.688-362.666 362.666s162.708 362.668 362.666 362.668 362.666-162.688 362.666-362.668-162.708-362.666-362.666-362.666z" />
<glyph unicode="&#xe926;" glyph-name="contact" d="M669.806 332.184l-88.244-88.244-273.621 273.621 88.244 88.244-229.165 229.167-109.462-109.462c-76.747-76.747-76.747-201.62 0-278.367l453.583-453.585c38.375-38.373 88.78-57.559 139.185-57.559 50.407 0 100.811 19.188 139.185 57.559l109.46 109.46zM167.021 750.109l144.305-144.305-45.814-45.814-144.305 144.307zM553.574 35.989l-453.585 453.583c-46.066 46.066-52.357 117.075-18.87 169.951l642.406-642.406c-52.875-33.481-123.883-27.192-169.951 18.872zM768.299 57.203l-144.305 144.307 45.814 45.814 144.305-144.305zM864.81 800.81c-102.653 102.655-239.139 159.19-384.315 159.19v-60.005c266.602 0 483.501-216.897 483.501-483.501h60.005c-0.002 145.175-56.535 281.663-159.192 384.317zM816.797 416.493h60.005c0 218.524-177.784 396.308-396.308 396.308v-60.005c185.437 0 336.302-150.864 336.302-336.302zM664.95 416.493h60.005c0 134.796-109.664 244.46-244.46 244.46v-60.005c101.707 0 184.455-82.745 184.455-184.455z" />
<glyph unicode="&#xe927;" glyph-name="mail" d="M836.53 835.982c-87.58 0-161.326-60.368-181.812-141.678h-579.806c-19.594 0-38.108-7.51-52.172-21.156-0.014-0.014-0.030-0.028-0.044-0.042-0.046-0.046-0.094-0.090-0.142-0.136-14.544-14.216-22.554-33.244-22.554-53.578v-484.462c0-20.634 8.636-40.55 23.688-54.646 0.030-0.028 0.060-0.058 0.090-0.086 13.924-13.014 32.082-20.182 51.134-20.182h706.706c18.992 0 37.098 7.122 50.998 20.052 0.1 0.092 0.198 0.184 0.296 0.278 15.010 14.1 23.616 33.982 23.616 54.582v327.172c94.006 10.014 167.472 89.794 167.472 186.412 0 103.37-84.098 187.47-187.47 187.47zM74.912 654.304h574.238c-0.058-1.924-0.088-3.854-0.088-5.792 0-35.818 10.098-69.322 27.594-97.816l-235.318-222.444h-26.142l-344.644 325.784c1.436 0.178 2.892 0.268 4.36 0.268zM40 619.392c0 2.618 0.286 5.19 0.842 7.682l280.18-264.848-279.47-237.632c-1.014 3.296-1.552 6.766-1.552 10.336zM781.618 100.018h-706.706c-0.164 0-0.324 0.020-0.486 0.022l275.838 234.546 43.236-40.87c3.714-3.51 8.63-5.464 13.74-5.464h42.054c5.11 0 10.026 1.956 13.74 5.464l43.234 40.87 275.86-234.564c-0.17-0.002-0.34-0.004-0.51-0.004zM816.53 134.93c0-3.572-0.526-7.046-1.542-10.344l-279.48 237.642 165.718 156.65c29.804-31.096 70.188-51.972 115.304-56.778zM836.53 501.040c-81.316 0-147.47 66.156-147.47 147.472s66.154 147.47 147.47 147.47 147.47-66.154 147.47-147.47-66.154-147.472-147.47-147.472zM843.258 712.562h-21.38c-11.046 0-20-8.956-20-20s8.954-20 20-20h1.38v-79.982c0-11.044 8.954-20 20-20s20 8.956 20 20v99.982c0 11.046-8.954 20-20 20z" />
<glyph unicode="&#xe928;" glyph-name="email" d="M934 838h-844c-13.854 0-26.824-3.406-38.558-9.020l458.558-458.558 102.778 98.774c0 0 0.008 0.010 0.010 0.014s0.010 0.008 0.010 0.008l359.774 359.754c-11.736 5.618-24.714 9.028-38.572 9.028zM1014.992 786.544l-338.566-338.548 338.554-338.554c5.614 11.734 9.020 24.704 9.020 38.558v600c0 13.846-3.398 26.814-9.008 38.544zM9.020 786.558c-5.614-11.734-9.020-24.704-9.020-38.558v-600c0-13.846 3.402-26.818 9.012-38.548l338.566 338.548-338.558 338.558zM634.004 405.574l-102.792-98.786c-5.86-5.86-13.536-8.79-21.21-8.79s-15.352 2.93-21.21 8.79l-98.792 98.79-338.572-338.55c11.736-5.618 24.714-9.028 38.572-9.028h844c13.854 0 26.824 3.406 38.558 9.020l-338.554 338.554z" />
<glyph unicode="&#xe929;" glyph-name="clock-1" d="M512 960c-282.328 0-512-229.672-512-512s229.672-512 512-512 512 229.672 512 512-229.672 512-512 512zM755.5 183.172c-8.32-8.32-19.242-12.508-30.164-12.508s-21.852 4.188-30.164 12.508l-213.336 213.328c-8.023 7.977-12.5 18.82-12.5 30.164v277.336c0 23.594 19.109 42.664 42.664 42.664s42.664-19.070 42.664-42.664v-259.672l200.836-200.828c16.68-16.688 16.68-43.648 0-60.328z" />
<glyph unicode="&#xe92a;" glyph-name="magnifying-glass" d="M1015.031-11.778l-248.848 248.848c66.753 76.743 107.168 176.873 107.168 286.311 0 240.901-195.945 436.619-436.619 436.619-240.901 0-436.619-195.945-436.619-436.619s195.945-436.619 436.619-436.619c109.439 0 209.568 40.415 286.311 107.168l248.848-248.848c5.903-5.903 13.85-9.082 21.57-9.082s15.667 2.952 21.57 9.082c11.807 11.807 11.807 31.333 0 43.14zM61.19 523.381c0 207.071 168.472 375.315 375.315 375.315 207.071 0 375.315-168.472 375.315-375.315s-168.245-375.542-375.315-375.542c-206.843 0-375.315 168.472-375.315 375.542z" />
<glyph unicode="&#xe92b;" glyph-name="phone-call-2" d="M719.374 142.198l-95.034 95.034c-27.418 27.418-72.036 27.416-99.45 0l-41.752-41.752c-95.36 49.936-173.724 128.3-223.66 223.66l41.754 41.754c27.416 27.418 27.416 72.032 0 99.45l-95.032 95.032c-27.418 27.418-72.032 27.418-99.45 0l-76.026-76.028c-39.724-39.722-40.966-109.748-3.498-197.174 33.776-78.812 95.768-165.606 174.554-244.392s165.58-140.778 244.392-174.554c42.374-18.16 80.656-27.226 113.384-27.226 34.798 0 63.32 10.252 83.79 30.722l76.026 76.026c13.284 13.282 20.598 30.942 20.598 49.726 0.002 18.78-7.314 36.44-20.596 49.722zM676.94 85.18l-76.026-76.026c-20.584-20.582-69.592-17.136-131.106 9.226-71.962 30.842-152.082 88.314-225.6 161.832-73.516 73.518-130.99 153.636-161.832 225.598-26.36 61.51-29.812 110.522-9.226 131.106l76.026 76.026c4.024 4.022 10.568 4.022 14.59 0l95.032-95.032c4.022-4.022 4.022-10.568 0-14.588l-71.97-71.972 9.052-19.108c58.112-122.68 157.68-222.25 280.362-280.362l19.108-9.050 71.97 71.97c2.628 2.628 5.7 3.022 7.294 3.022s4.664-0.392 7.292-3.020l95.032-95.032c2.628-2.628 3.022-5.698 3.022-7.294 0.004-1.598-0.392-4.668-3.020-7.296zM931.502 882.476c-58.324 49.992-135.58 77.524-217.536 77.524-81.954 0-159.212-27.532-217.536-77.524-59.646-51.126-92.496-119.492-92.496-192.504s32.85-141.376 92.496-192.504c10.69-9.16 22.018-17.562 33.892-25.182-21.924-33.034-47.554-63.396-76.382-90.406 62.88 5.2 122.502 21.864 176.808 47.854 26.772-6.448 54.71-9.79 83.218-9.79 81.956 0 159.212 27.532 217.536 77.524 59.648 51.124 92.498 119.492 92.498 192.504s-32.85 141.376-92.498 192.504zM713.966 479.95c-137.864 0-250.026 94.216-250.026 210.022s112.162 210.022 250.026 210.022 250.026-94.216 250.026-210.022c0.002-115.806-112.162-210.022-250.026-210.022zM753.978 689.972c0-22.094-17.91-40.004-40.004-40.004s-40.004 17.91-40.004 40.004c0 22.094 17.91 40.004 40.004 40.004s40.004-17.91 40.004-40.004zM613.964 689.972c0-22.094-17.91-40.004-40.004-40.004s-40.004 17.91-40.004 40.004c0 22.094 17.91 40.004 40.004 40.004s40.004-17.91 40.004-40.004zM893.994 689.972c0-22.094-17.91-40.004-40.004-40.004s-40.004 17.91-40.004 40.004c0 22.094 17.91 40.004 40.004 40.004s40.004-17.91 40.004-40.004z" />
<glyph unicode="&#xe92c;" glyph-name="right-arrow-2" d="M1012.268 476.314c-0.012 0.012-0.022 0.026-0.036 0.038l-209.008 208c-15.658 15.582-40.984 15.524-56.57-0.136-15.584-15.658-15.524-40.984 0.134-56.568l140.328-139.648h-847.116c-22.092 0-40-17.908-40-40s17.908-40 40-40h847.114l-140.324-139.648c-15.658-15.584-15.718-40.91-0.134-56.568 15.586-15.662 40.914-15.716 56.57-0.136l209.008 208c0.012 0.012 0.022 0.026 0.036 0.038 15.666 15.636 15.616 41.044-0.002 56.628z" />
<glyph unicode="&#xe92d;" glyph-name="investment" d="M976 496h-240v64c97.156 0.114 175.886 78.844 176 175.989v0.011c0 8.837-7.163 16-16 16v0h-16c-59.319-0.013-111.776-29.385-143.631-74.375l-0.369-0.549v90.924h16c79.492 0.092 143.908 64.508 144 143.991v0.009c0 8.837-7.163 16-16 16v0h-32c-55.452-0.054-103.566-31.419-127.622-77.365l-0.378-0.793c-24.434 46.739-72.548 78.104-127.992 78.158h-32.008c-8.837 0-16-7.163-16-16v0c0.092-79.492 64.508-143.908 143.991-144h16.009v-90.924c-32.224 45.539-84.681 74.911-143.998 74.924h-16.002c-8.837 0-16-7.163-16-16v0c0.114-97.156 78.844-175.886 175.989-176h0.011v-64h-112v-32h368v-64h-336v-32h300.666l-57.906-304h-194.76v-32h208c0.001 0 0.001 0 0.002 0 7.775 0 14.256 5.546 15.7 12.899l0.017 0.101 61.522 323h18.76c8.837 0 16 7.163 16 16v0 96c0 8.837-7.163 16-16 16v0zM560.884 720c73.485-0.563 133.85-55.999 142.168-127.327l0.064-0.673c-73.485 0.563-133.85 55.999-142.168 127.327l-0.064 0.673zM879.116 720c-8.382-72.001-68.747-127.437-142.174-128h-0.058c8.382 72.001 68.747 127.437 142.174 128h0.058zM848 896h14.86c-8.172-54.557-54.674-95.928-110.852-96h-14.868c8.172 54.557 54.674 95.928 110.852 96h0.008zM688 800c-56.187 0.072-102.689 41.443-110.784 95.383l-0.076 0.617h14.86c56.187-0.072 102.689-41.443 110.784-95.383l0.076-0.617zM614.31 73.692l-10.87 7.244c-6.937 4.661-11.44 12.477-11.44 21.346 0 0.010 0 0.020 0 0.030v-0.002 217.69c-0.152 115.276-76.338 212.716-181.091 244.872l-1.817 0.48 37.89 101.028c0.646 1.669 1.019 3.601 1.019 5.62 0 8.837-7.163 16-16 16-0.001 0-0.001 0-0.002 0h-192c0 0-0.001 0-0.001 0-8.837 0-16-7.163-16-16 0-2.019 0.374-3.951 1.056-5.73l-0.037 0.11 30-80 29.962 11.24-21.892 58.38h145.824l-31.282-83.4c-12.509 2.166-26.915 3.404-41.61 3.404-141.39 0-256.011-114.615-256.020-256.003v-231.439l-22.31-14.872c-15.578-10.494-25.688-28.066-25.688-48 0-31.861 25.827-57.689 57.688-57.69h492.622c0 0 0.001 0 0.001 0 31.861 0 57.69 25.829 57.69 57.69 0 19.935-10.111 37.509-25.485 47.872l-0.205 0.13zM582.31 0h-492.622c-0.001 0-0.001 0-0.002 0-14.187 0-25.688 11.501-25.688 25.688 0 8.878 4.504 16.704 11.351 21.318l0.091 0.058 29.436 19.624c4.32 2.91 7.124 7.784 7.124 13.312v0 240c0 123.712 100.288 224 224 224s224-100.288 224-224v0-217.69c0-0.017 0-0.037 0-0.057 0-19.918 10.113-37.473 25.484-47.812l0.206-0.131 10.87-7.244c6.94-4.672 11.445-12.499 11.445-21.378 0-14.187-11.501-25.688-25.688-25.688-0.002 0-0.004 0-0.006 0v0zM196.474 452.6l21.908-23.324c8.383 7.892 17.907 14.715 28.264 20.168l0.704 0.338-14.7 28.42c-13.815-7.227-25.708-15.747-36.258-25.678l0.082 0.076zM145.932 336v-80h32v80c0 0.053 0 0.115 0 0.177 0 26.693 8.225 51.466 22.28 71.92l-0.28-0.431-26.478 17.968c-17.232-25.044-27.522-56.029-27.522-89.417 0-0.076 0-0.153 0-0.229v0.012zM320 336h32c17.664-0.022 31.978-14.336 32-31.998v-0.002h32c-0.041 35.33-28.67 63.959-63.996 64h-0.004v32h-32v-32c-35.346 0-64-28.654-64-64s28.654-64 64-64v0h32c17.673 0 32-14.327 32-32s-14.327-32-32-32v0h-32c-17.664 0.022-31.978 14.336-32 31.998v0.002h-32c0.041-35.33 28.67-63.959 63.996-64h0.004v-32h32v32c35.346 0 64 28.654 64 64s-28.654 64-64 64v0h-32c-17.673 0-32 14.327-32 32s14.327 32 32 32v0z" />
<glyph unicode="&#xe92e;" glyph-name="agriculture" d="M965.616-16l-43.184 34.544c-32.336 25.872-68.368 46.416-106.432 61.824v32.912c54.192 7.808 96 54.416 96 110.72v160c0 8.848-7.168 16-16 16-31.328 0-59.648-12.96-80-33.776v67.040c54.192 7.808 96 54.416 96 110.72v96c0 8.832-7.168 16-16 16-31.328 0-59.648-12.96-80-33.76v67.040c54.192 7.808 96 54.416 96 110.72v32.016c0 8.832-7.168 16-16 16-40.768 0-76.4-21.968-96-54.608-19.6 32.64-55.232 54.608-96 54.608-8.832 0-16-7.168-16-16v-32c0-56.304 41.808-102.912 96-110.72v-67.040c-20.352 20.8-48.672 33.76-80 33.76-8.832 0-16-7.168-16-16v-96c0-56.304 41.808-102.912 96-110.72v-67.040c-20.352 20.8-48.672 33.76-80 33.76-8.832 0-16-7.152-16-16v-160c0-56.304 41.808-102.912 96-110.72v-21.408c-41.248 13.008-84.384 20.128-128 20.128-24 0-48.128-2.16-71.84-6.208-18.512 3.2-37.296 4.816-56.16 5.536v97.952c54.192 7.808 96 54.416 96 110.72v160c0 8.832-7.168 16-16 16-31.328 0-59.648-12.96-80-33.76v67.040c54.192 7.808 96 54.416 96 110.72v96c0 8.832-7.168 16-16 16-31.328 0-59.648-12.96-80-33.76v67.040c54.192 7.808 96 54.416 96 110.72v32c0 8.832-7.168 16-16 16-40.768 0-76.4-21.968-96-54.608-19.6 32.64-55.232 54.608-96 54.608-8.832 0-16-7.168-16-16v-32c0-56.304 41.808-102.912 96-110.72v-67.040c-20.352 20.8-48.672 33.76-80 33.76-8.832 0-16-7.168-16-16v-96c0-56.304 41.808-102.912 96-110.72v-67.040c-20.352 20.8-48.672 33.76-80 33.76-8.832 0-16-7.168-16-16v-160c0-56.304 41.808-102.912 96-110.72v-97.968c-18.864-0.72-37.648-2.336-56.16-5.536-23.712 4.064-47.84 6.224-71.84 6.224-43.616 0-86.752-7.12-128-20.128v21.408c54.192 7.808 96 54.416 96 110.72v160c0 8.848-7.168 16-16 16-31.328 0-59.648-12.96-80-33.776v67.040c54.192 7.808 96 54.416 96 110.72v96c0 8.832-7.168 16-16 16-31.328 0-59.648-12.96-80-33.76v67.040c54.192 7.808 96 54.416 96 110.72v32.016c0 8.832-7.168 16-16 16-40.768 0-76.4-21.968-96-54.608-19.6 32.64-55.232 54.608-96 54.608-8.832 0-16-7.168-16-16v-32c0-56.304 41.808-102.912 96-110.72v-67.040c-20.352 20.8-48.672 33.76-80 33.76-8.832 0-16-7.168-16-16v-96c0-56.304 41.808-102.912 96-110.72v-67.040c-20.352 20.8-48.672 33.76-80 33.76-8.832 0-16-7.152-16-16v-160c0-56.304 41.808-102.912 96-110.72v-32.912c-38.064-15.408-74.096-35.952-106.432-61.824l-43.184-34.544h-42.384v-32h992v32zM880 366.384v-142.384c0-38.64-27.536-70.96-64-78.384v142.384c0 38.64 27.536 70.96 64 78.384zM880 622.384v-78.384c0-38.64-27.536-70.96-64-78.384v78.384c0 38.64 27.536 70.96 64 78.384zM880 814.384v-14.384c0-38.64-27.536-70.96-64-78.384v14.384c0 38.64 27.536 70.96 64 78.384zM720 800v14.384c36.464-7.424 64-39.76 64-78.384v-14.384c-36.464 7.424-64 39.744-64 78.384zM720 544v78.384c36.464-7.424 64-39.76 64-78.384v-78.384c-36.464 7.424-64 39.744-64 78.384zM720 224v142.384c36.464-7.44 64-39.744 64-78.384v-142.384c-36.464 7.424-64 39.744-64 78.384zM304 366.384v-142.384c0-38.64-27.536-70.96-64-78.384v142.384c0 38.64 27.536 70.96 64 78.384zM304 622.384v-78.384c0-38.64-27.536-70.96-64-78.384v78.384c0 38.64 27.536 70.96 64 78.384zM304 814.384v-14.384c0-38.64-27.536-70.96-64-78.384v14.384c0 38.64 27.536 70.96 64 78.384zM144 800v14.384c36.464-7.424 64-39.76 64-78.384v-14.384c-36.464 7.424-64 39.744-64 78.384zM144 544v78.384c36.464-7.424 64-39.76 64-78.384v-78.384c-36.464 7.424-64 39.744-64 78.384zM144 224v142.384c36.464-7.44 64-39.744 64-78.384v-142.384c-36.464 7.424-64 39.744-64 78.384zM902.448-6.448l11.936-9.552h-92.768l-43.184 34.544c-31.52 25.216-66.544 45.376-103.536 60.672 82.304-4.224 162.896-33.936 227.552-85.664zM512 80c89.248 0 176.768-30.704 246.448-86.448l11.936-9.552h-516.768l11.936 9.552c69.68 55.744 157.2 86.448 246.448 86.448zM592 462.384v-142.384c0-38.64-27.536-70.96-64-78.384v142.384c0 38.64 27.536 70.96 64 78.384zM592 718.384v-78.384c0-38.64-27.536-70.96-64-78.384v78.384c0 38.64 27.536 70.96 64 78.384zM592 910.384v-14.384c0-38.64-27.536-70.96-64-78.384v14.384c0 38.64 27.536 70.96 64 78.384zM432 896v14.384c36.464-7.424 64-39.744 64-78.384v-14.384c-36.464 7.424-64 39.744-64 78.384zM432 640v78.384c36.464-7.424 64-39.76 64-78.384v-78.384c-36.464 7.424-64 39.744-64 78.384zM432 320v142.384c36.464-7.424 64-39.744 64-78.384v-142.384c-36.464 7.424-64 39.744-64 78.384zM121.552-6.448c64.656 51.728 145.248 81.44 227.552 85.664-36.992-15.28-72.016-35.44-103.536-60.656l-43.184-34.56h-92.768z" />
<glyph unicode="&#xe92f;" glyph-name="harvest" d="M848 368h32v-32h-32v32zM848 240h32v-32h-32v32zM848 112h32v-32h-32v32zM976 496h-71.728c-8.16 37.36-25.712 71.968-51.344 100.768-11.632 13.072-25.216 23.616-39.76 31.2 29.168 20.24 48.336 53.92 48.336 92.032v16h-80c-40.768 0-76.4-21.968-96-54.608v38.608c0 35.296 28.704 64 64 64v32c-52.944 0-96-43.056-96-96v-88.784c-47.344 17.152-100.576 4.32-134.592-33.504-4.112-4.576-7.968-9.328-11.664-14.192l1.392 6.672c2.224 10.72 3.36 21.712 3.36 33.808 0 44.944-18.688 85.552-48.624 114.64l56.096 82.56c1.2 1.776 2.288 3.648 3.296 5.648 12.208 24.432 2.272 54.256-22.16 66.464l-4 2c-11.824 5.92-25.248 6.88-37.808 2.688s-22.736-13.008-28.784-25.072c-0.864-1.712-1.616-3.488-2.256-5.264l-32.624-89.728c-2.208 0.624-4.448 1.2-6.688 1.728l11.296 113.104c0.176 1.568 0.256 3.168 0.256 4.752 0 25.632-20.864 46.48-46.48 46.48h-3.024c-25.632 0-46.496-20.848-46.496-46.48 0-1.6 0.080-3.184 0.24-4.64l11.312-113.248c-2.256-0.528-4.48-1.104-6.688-1.728l-32.608 89.712c-0.656 1.808-1.408 3.584-2.384 5.536-5.92 11.84-16.096 20.656-28.656 24.848-12.544 4.192-25.968 3.232-37.808-2.688l-4-2c-24.416-12.224-34.352-42.032-22.128-66.528 0.992-1.936 2.064-3.792 3.296-5.616l56.128-82.608c-29.984-29.248-48.704-70.16-48.704-115.712 0-10.944 1.136-21.936 3.376-32.64l19.632-94.208h-23.008c-17.648 0-32-14.352-32-32v-1.28c-5.248 0.752-10.56 1.28-16 1.28h-80v-16c0-38.112 19.168-71.792 48.336-92.032-14.56-7.584-28.144-18.128-39.76-31.216-36.48-40.992-56.576-93.824-56.576-148.752 0-61.472 24.4-118.8 68.704-161.44 42.144-40.544 96.96-62.576 155.2-62.576 2.992 0 5.968 0.064 8.976 0.176 56.944 2.192 108.736 26.24 147.248 63.824h467.872c44.112 0 80 35.888 80 80v304.016h32c17.648 0 32 14.352 32 32v32c0 17.648-14.352 32-32 32zM781.504 704h46.384c-7.44-36.464-39.744-64-78.384-64h-46.384c7.424 36.464 39.744 64 78.384 64zM542.688 576.32c26.064 28.96 69.184 38.512 104.864 23.248 1.92-0.816 3.952-1.456 5.952-2.144v-34.16c-15.888 5.92-30.976 18.384-36.704 24.080l-22.608-22.656c3.744-3.76 37.76-36.688 75.312-36.688s71.568 32.928 75.312 36.688l-22.608 22.656c-5.728-5.68-20.816-18.144-36.704-24.080v44.736h64c5.424 0 10.704 0.512 15.92 1.264 22.416-1.6 46.128-14.144 63.6-33.76 20.4-22.912 34.752-50.128 42.32-79.504h-371.68c7.648 29.728 22.256 57.232 43.024 80.32zM457.84 856.752c0.224 0.608 0.464 1.2 0.928 2.096 2.096 4.192 5.68 7.312 10.144 8.8 4.48 1.488 9.2 1.136 13.392-0.96l4-2c8.656-4.32 12.176-14.88 7.872-23.472-0.352-0.72-0.784-1.44-1.2-2.064l-54.752-80.576c-4.304 2.768-8.736 5.328-13.296 7.68l32.912 90.496zM336 897.52c0 7.984 6.496 14.48 14.48 14.48h3.024c7.984 0 14.48-6.496 14.4-15.92l-11.232-112.32c-1.552 0.048-3.088 0.24-4.672 0.24s-3.12-0.192-4.688-0.24l-11.312 113.76zM211.056 839.104c-0.448 0.672-0.88 1.376-1.2 2.048-4.336 8.656-0.816 19.216 7.84 23.536l4 2c4.176 2.080 8.928 2.448 13.392 0.96 4.448-1.488 8.048-4.608 10.304-9.104 0.304-0.576 0.544-1.168 0.784-1.808l32.912-90.512c-4.56-2.352-8.992-4.912-13.28-7.68l-54.752 80.56zM352 752c70.576 0 128-57.424 128-129.152 0-8.752-0.912-17.536-2.688-26.112l-20.992-100.736h-178.208c11.248 9.84 25.792 16 41.888 16v32c-30.24 0-57.216-14.080-74.832-36l-18.496 88.736c-1.76 8.576-2.672 17.36-2.672 27.264 0 70.576 57.424 128 128 128zM192 464h33.44c-0.88-5.216-1.44-10.544-1.44-16v-17.776c-9.184 9.392-20.016 17.088-32 22.8v10.976zM144 432c38.64 0 70.96-27.536 78.384-64h-46.384c-38.64 0-70.96 27.536-78.384 64h46.384zM247.648-15.856c-53.088-1.904-102.784 16.96-140.752 53.488-37.968 36.544-58.896 85.68-58.896 138.368 0 47.088 17.216 92.352 48.464 127.504 17.472 19.632 41.184 32.176 63.616 33.76 5.216-0.752 10.496-1.264 15.92-1.264h48v-44.736c-15.888 5.92-30.976 18.384-36.704 24.080l-22.608-22.656c3.744-3.76 37.76-36.688 75.312-36.688s71.568 32.928 75.312 36.688l-22.608 22.656c-5.728-5.68-20.816-18.144-36.704-24.080v30.128c7.664 1.232 15.088 3.232 21.952 6.176 35.664 15.296 78.8 5.696 104.848-23.248 33.84-37.616 51.248-86.288 49.008-137.040-4.368-98.88-85.28-179.312-184.16-183.136zM463.744 176c0 33.632-7.184 66.288-21.312 96h469.568v-96h-448.256zM864 48h-440.592c19.712 28.064 33.184 60.752 38.288 96h450.304v-48c0-26.464-21.536-48-48-48zM976 432h-64v-128h-488.4c-5.248 7.504-10.8 14.816-17.008 21.712-35.632 39.6-92.416 52.144-141.216 31.264-2.928-1.248-6.144-2.064-9.36-2.864v45.888h624v32h-624.016v16c0 5.552 0.928 10.848 2.272 16h717.728v-32zM112 176h-32c0-88.224 71.776-160 160-160v32c-70.576 0-128 57.424-128 128zM400 688h32v-32h-32v32zM400 624h32v-32h-32v32zM400 560h32v-32h-32v32z" />
<glyph unicode="&#xe930;" glyph-name="growth" d="M976-16h32v-32h-32v32zM16-16h32v-32h-32v32zM901.040 3.424c-10.864 32.608-35.76 57.36-66.576 69.040l-19.824 52.016c-11.728 30.816-41.76 51.52-74.752 51.52h-35.888v160h80c79.408 0 144 64.592 144 144v16h-112c-45.216 0-85.584-20.992-112-53.68v197.68h80c79.408 0 144 64.592 144 144v16h-112c-71.376 0-130.624-52.256-141.904-120.48-23.376 30.4-58.496 51.312-98.608 55.616-4.56 7.856-8.736 15.984-12.208 24.384-12.336 29.744-17.28 61.552-14.336 91.952l1.872 19.344-19.344-1.872c-30.496-2.912-62.224 2.032-91.952 14.336-29.744 12.32-55.728 31.296-75.152 54.896l-12.368 14.992-12.352-15.008c-19.424-23.6-45.408-42.576-75.152-54.896-29.728-12.32-61.488-17.248-91.952-14.336l-19.36 1.888 1.872-19.344c2.944-30.4-2.016-62.208-14.336-91.952s-31.296-55.728-54.896-75.152l-14.992-12.368 15.008-12.352c12.24-10.080 23.168-22.256 32.72-35.648h-102.56v-16c0-79.408 64.592-144 144-144h80v-117.68c-26.416 32.688-66.784 53.68-112 53.68h-112v-16c0-79.408 64.592-144 144-144h80v-128.192c-45.424-1.056-86.352-29.808-102.336-72.48l-20.752-55.328h-36.912v-32h864v32h-36.48l-6.48 19.424zM816 464h78.864c-7.776-54.208-54.528-96-110.864-96h-78.864c7.792 54.208 54.528 96 110.864 96zM160 272c-56.336 0-103.072 41.792-110.864 96h78.864c56.336 0 103.072-41.792 110.864-96h-78.864zM784.752 113.072l12.688-33.28c-0.896 0.016-1.744 0.208-2.624 0.208h-90.816v-32h90.816c34.48 0 64.992-21.984 75.888-54.704l3.104-9.296h-419.616l3.104 9.296c10.912 32.72 41.408 54.704 75.888 54.704h138.816v32h-89.808l10.384 31.168c6.56 19.648 24.864 32.832 45.552 32.832h101.76c19.776 0 37.808-12.416 44.864-30.928zM672 378.32c-26.416 32.688-66.784 53.68-112 53.68h-100.976c10.928 12.176 19.872 26.128 26.192 41.504 15.52 2.416 31.040 3.024 46.272 1.568l19.328-1.872-1.872 19.344c-2.768 28.672 1.728 58.528 12.56 86.784 9.824-2.144 20.016-3.328 30.496-3.328h80v-197.68zM670.864 304h-78.864c-56.336 0-103.072 41.792-110.864 96h78.864c56.336 0 103.072-41.792 110.864-96zM271.504 489.664c-1.28 19.248-6.336 37.424-14.48 53.872 14.016-10.4 29.696-18.656 46.688-24.048-12.208-8.24-23.024-18.336-32.208-29.824zM447.552 544c22.528 16.816 40.608 39.424 51.808 65.904 9.6-8.096 20.32-14.864 31.824-20.256-10.032-26.56-15.296-54.368-15.056-81.776-7.28 0.032-14.56-0.32-21.856-0.992 1.024 6.912 1.728 13.936 1.728 21.12v16h-48.448zM474.96 636.432c-15.648-54.096-65.808-92.432-122.96-92.432-70.576 0-128 57.424-128 128s57.424 128 128 128c46.176 0 87.984-24.736 110.672-64h-14.672v-16c0-31.168 10.064-59.984 26.96-83.568zM384 512h78.864c-7.776-54.208-54.528-96-110.864-96h-78.864c7.792 54.208 54.528 96 110.864 96zM816 768h78.864c-7.776-54.208-54.528-96-110.864-96h-78.864c7.792 54.208 54.528 96 110.864 96zM670.864 608h-78.864c-56.336 0-103.072 41.792-110.864 96h78.864c56.336 0 103.072-41.792 110.864-96zM170.288 747.264c11.872 28.64 17.856 59.008 17.6 88.864 29.776-0.080 60.224 5.712 88.864 17.6 28.64 11.856 54.336 29.104 75.264 50.384 20.928-21.28 46.624-38.528 75.264-50.384 28.64-11.872 59.056-17.6 88.864-17.6-0.272-29.84 5.712-60.224 17.6-88.864 1.584-3.808 3.408-7.536 5.184-11.264h-40.368c-25.536 58.336-82.752 96-146.56 96-88.224 0-160-71.776-160-160 0-26.688 6.656-51.824 18.272-73.984-15.344 10.736-32.848 18.56-51.744 22.656-10.576 19.024-23.568 36.496-38.64 51.328 21.28 20.912 38.528 46.624 50.4 75.264zM160 496c-56.336 0-103.072 41.792-110.864 96h78.864c56.336 0 103.072-41.792 110.864-96h-78.864zM352 144c79.408 0 144 64.592 144 144v16h-112c-45.216 0-85.584-20.992-112-53.68v133.68h80c36.896 0 70.496 14.064 96 36.976v-4.976c0-79.408 64.592-144 144-144h80v-96h-33.872c-34.48 0-64.992-21.984-75.888-54.704l-3.104-9.296h-287.136v32h80zM273.136 176c7.776 54.208 54.528 96 110.864 96h78.864c-7.776-54.208-54.528-96-110.864-96h-78.864zM167.632 28.096c11.632 31.040 41.728 51.904 74.896 51.904h290.656c-48.288 0-90.992-30.784-106.24-76.576l-6.464-19.424h-269.392l16.544 44.096zM224 48h32v-32h-32v32zM320 48h32v-32h-32v32z" />
<glyph unicode="&#xe931;" glyph-name="dairy-products" d="M864 912h-40.568c-0.012 0-0.026 0-0.040 0-8.374 0-16.416-1.417-23.901-4.024l0.51 0.155v3.87c0 8.837-7.163 16-16 16h-400c0 0 0 0-0.001 0-8.837 0-16-7.163-16-16 0-1.81 0.301-3.55 0.854-5.172l-0.033 0.113 8.742-26.228c12.418-36.164 19.587-77.832 19.587-121.175 0-67.832-17.559-131.563-48.381-186.894l1.001 1.957c-25.498-45.356-42.828-98.629-48.503-155.338l-0.138-1.7 31.848-3.127c5.357 53.835 21.33 102.938 45.805 146.635l-0.973-1.892c32.308 57.829 51.333 126.878 51.333 200.37 0 46.958-7.767 92.102-22.086 134.217l0.867-2.935-1.723 5.168h17.976l74.393-95.649c8.779-11.323 22.385-18.541 37.676-18.541 0.023 0 0.045 0 0.068 0h-0.003c2.102 0.001 4.173 0.133 6.206 0.388l-0.243-0.025c17.094 2.062 31.243 12.921 37.928 27.851l0.121 0.302 38.078 85.675h149.602v-73.379c0.020-36.468 4.732-71.827 13.565-105.516l-0.645 2.895h-220.92v-32h230.496c8.764-25.47 18.539-47.144 30.018-67.737l-1.079 2.107 1.528-2.778-88.278-88.279c-19.639-19.596-46.747-31.714-76.686-31.714s-57.047 12.118-76.687 31.716l0.002-0.002c-25.362 25.475-60.46 41.24-99.24 41.24-19.582 0-38.226-4.020-55.15-11.279l0.912 0.348 12.328-29.529c12.365 5.336 26.761 8.44 41.883 8.44 29.948 0 57.052-12.174 76.635-31.842l0.004-0.004c25.434-25.378 60.542-41.071 99.314-41.071s73.88 15.693 99.317 41.074l81.706 81.707 17.169-31.216c13.44-23.907 24.914-51.596 32.984-80.7l0.627-2.65 30.895 8.34q-4.559 16.889-10.578 33.342c51.831 51.953 83.881 123.66 83.881 202.853 0 0.272 0 0.543-0.001 0.815v-0.042 62.863c-0.082 70.659-57.341 127.918-127.992 128h-0.008zM464.713 896h34.452l13.781-62.014zM551.078 823.321c-0.614-1.381-1.343-2.572-2.203-3.653l0.026 0.034-16.955 76.298h51.434zM802.458 779.831l24.287 24.287c7.342 7.342 17.484 11.883 28.687 11.883 22.405 0 40.569-18.163 40.569-40.568v0-22.295c-0.122-49.743-14.257-96.159-38.664-135.541l0.638 1.106-10.5 19.090c-22.965 41.044-38.921 89.118-44.848 140.25l-0.169 1.789zM960 721.137c0.001-0.211 0.001-0.461 0.001-0.712 0-65.65-24.785-125.511-65.508-170.737l0.204 0.23q-5.829 12.539-12.467 24.684l-6.786 12.338c32.766 46.327 52.423 103.954 52.556 166.164v22.328c0 40.078-32.49 72.568-72.569 72.568-20.039 0-38.182-8.123-51.314-21.255l-4.117-4.117v49.874c6.501 4.688 14.628 7.498 23.411 7.498 0.007 0 0.014 0 0.021 0h40.567c52.994-0.062 95.938-43.006 96-95.994v-0.006zM496 720h32v-32h-32v32zM944 288h-3.52c-7.736 51.663-26.235 97.881-53.178 137.949l0.758-1.197c-12.255 18.195-32.779 30.004-56.061 30.004s-43.806-11.809-55.908-29.764l-0.152-0.24c-26.184-38.87-44.683-85.088-52.191-134.908l-0.228-1.844h-3.52c-8.837 0-16-7.163-16-16v0-46.416c0.125-51.064 33.256-94.357 79.182-109.682l0.818-0.237v-54.549l-20.068-4.014c-34.374-7.134-59.851-37.132-59.932-73.094v-0.009c0-8.837 7.163-16 16-16h224c8.837 0 16 7.163 16 16v0c-0.081 35.97-25.556 65.967-59.445 73.018l-0.485 0.084-20.070 4.014v54.549c46.744 15.562 79.875 58.855 80 109.904v46.431c0 8.837-7.163 16-16 16v0zM802.564 407.002c6.435 9.553 17.211 15.754 29.436 15.754s23.001-6.2 29.356-15.628l0.080-0.126c22.825-33.869 39.228-73.998 46.455-117.234l0.244-1.768h-152.27c7.471 45.004 23.874 85.133 47.384 120.083l-0.685-1.081zM928 225.584c-0.092-40.296-28.631-73.901-66.595-81.8l-0.543-0.095c-7.386-1.516-12.861-7.963-12.861-15.689 0 0 0 0 0 0v0-80c0 0 0 0 0 0 0-7.726 5.476-14.173 12.758-15.671l0.103-0.018 32.934-6.587c14.189-2.94 25.619-12.606 30.96-25.441l0.104-0.282h-185.719c5.447 13.118 16.877 22.784 30.79 25.676l0.277 0.048 32.932 6.587c7.386 1.516 12.861 7.963 12.861 15.689 0 0 0 0 0 0v0 80c0 0 0 0 0 0 0 7.726-5.476 14.173-12.758 15.671l-0.103 0.018c-38.507 7.994-67.047 41.598-67.139 81.884v30.426h192zM603.314 379.313c-2.896 2.896-6.896 4.686-11.314 4.687h-496c-8.837 0-16-7.163-16-16v0-304h-32c-8.837 0-16-7.163-16-16v0c0.052-44.162 35.838-79.948 79.995-80h480.005c44.162 0.052 79.948 35.838 80 79.995v0.005c0 8.837-7.163 16-16 16h-29.15c29.555 39.735 47.316 89.771 47.316 143.955 0 66.896-27.071 127.469-70.856 171.363l0.005-0.005zM592 0h-480c-20.767 0.025-38.448 13.212-45.152 31.665l-0.106 0.335h570.516c-6.81-18.788-24.491-31.975-45.255-32h-0.003zM112 64v288h473.23c35.27-37.557 56.938-88.248 56.938-144s-21.668-106.443-57.042-144.112l0.104 0.112zM304 192c-26.51 0-48-21.49-48-48s21.49-48 48-48c26.51 0 48 21.49 48 48v0c-0.031 26.497-21.503 47.969-47.997 48h-0.003zM304 128c-8.837 0-16 7.163-16 16s7.163 16 16 16c8.837 0 16-7.163 16-16v0c-0.010-8.832-7.168-15.99-15.999-16h-0.001zM192 272c-26.51 0-48-21.49-48-48s21.49-48 48-48c26.51 0 48 21.49 48 48v0c-0.031 26.497-21.503 47.969-47.997 48h-0.003zM192 208c-8.837 0-16 7.163-16 16s7.163 16 16 16c8.837 0 16-7.163 16-16v0c-0.010-8.832-7.168-15.99-15.999-16h-0.001zM336 224c26.51 0 48 21.49 48 48s-21.49 48-48 48c-26.51 0-48-21.49-48-48v0c0.031-26.497 21.503-47.969 47.997-48h0.003zM336 288c8.837 0 16-7.163 16-16s-7.163-16-16-16c-8.837 0-16 7.163-16 16v0c0.010 8.832 7.168 15.99 15.999 16h0.001zM592 240c0-8.837-7.163-16-16-16s-16 7.163-16 16c0 8.837 7.163 16 16 16s16-7.163 16-16zM480 304c0-8.837-7.163-16-16-16s-16 7.163-16 16c0 8.837 7.163 16 16 16s16-7.163 16-16zM256 304c0-8.837-7.163-16-16-16s-16 7.163-16 16c0 8.837 7.163 16 16 16s16-7.163 16-16zM192 112c0-8.837-7.163-16-16-16s-16 7.163-16 16c0 8.837 7.163 16 16 16s16-7.163 16-16zM400 192c0-8.837-7.163-16-16-16s-16 7.163-16 16c0 8.837 7.163 16 16 16s16-7.163 16-16zM496 224c-35.346 0-64-28.654-64-64s28.654-64 64-64c35.346 0 64 28.654 64 64v0c-0.041 35.33-28.67 63.959-63.996 64h-0.004zM496 128c-17.673 0-32 14.327-32 32s14.327 32 32 32c17.673 0 32-14.327 32-32v0c-0.021-17.665-14.335-31.979-31.998-32h-0.002z" />
<glyph unicode="&#xe932;" glyph-name="farm" d="M984.875 669.312l-92.041 61.361-46.127 107.63c-1.436 3.294-3.844 5.942-6.857 7.642l-0.080 0.041-144 80c-2.239 1.267-4.917 2.013-7.769 2.014h-272c0 0 0 0 0 0-2.852 0-5.529-0.748-7.846-2.059l0.079 0.041-0.002 0.004-144-80c-3.094-1.741-5.501-4.389-6.897-7.581l-0.040-0.103-48-112c-0.817-1.858-1.293-4.024-1.293-6.301 0-0.001 0-0.001 0-0.002v0-80h-32v32h-32v-32h-48v32h-32v-32h-32v-32h32v-32h-32v-32h944c8.837 0 16 7.163 16 16v0 96c0 0 0 0 0 0 0 5.529-2.804 10.402-7.068 13.276l-0.057 0.036zM624 690.104l64-42.667v-71.438h-64zM720 640h144v-64h-144zM708.844 672l-48 32h214.312l48-32zM855.736 736h-237.186l-34.286 80h237.186zM683.854 896l86.401-48h-206.109l-86.399 48zM284.551 820.67l131.449 73.027 131.449-73.027 44.551-103.956v-140.714h-96v112c0 8.837-7.163 16-16 16h-128c-8.837 0-16-7.163-16-16v0-112h-96v140.716zM432 672h32v-96h-32zM400 576h-32v96h32zM208 608v-32h-32v32zM96 608h48v-32h-48zM896 576v64h64v-64zM304 800h32v-32h-32zM496 800h32v-32h-32zM400 864h32v-32h-32zM224 224c-26.51 0-48-21.49-48-48s21.49-48 48-48c26.51 0 48 21.49 48 48v0c-0.031 26.497-21.503 47.969-47.997 48h-0.003zM224 160c-8.837 0-16 7.163-16 16s7.163 16 16 16c8.837 0 16-7.163 16-16v0c-0.010-8.832-7.168-15.99-15.999-16h-0.001zM576 144c0-8.837-7.163-16-16-16s-16 7.163-16 16c0 8.837 7.163 16 16 16s16-7.163 16-16zM640 144c-0.038 32.591-19.532 60.619-47.491 73.097l-0.509 0.203v70.7c0 8.038-5.927 14.691-13.649 15.828l-0.087 0.011-18.264 2.609v45.552h-32v-40.981l-61.736 8.819c-0.681 0.103-1.467 0.162-2.267 0.162-4.018 0-7.69-1.482-10.499-3.93l0.019 0.016c-0.403-0.35-0.781-0.722-1.145-1.106l-15.746 10.497 9.684 19.367-28.621 14.311-32-64 28.621-14.311 7.895 15.789 25.795-17.196v-39.438h-77.377c-3.062 6.971-6.075 12.735-9.416 18.28l0.401-0.718-25.919 129.577c-1.516 7.386-7.963 12.861-15.689 12.861 0 0 0 0 0 0h-64c-8.837 0-16-7.163-16-16v0-48.811c-5.319 0.53-10.661 0.811-16 0.811-0.064 0-0.139 0-0.214 0-19.044 0-37.308-3.341-54.238-9.469l1.11 0.351 10.684-30.164c12.643 4.614 27.239 7.282 42.458 7.282 0.071 0 0.141 0 0.212 0h-0.011c0.065 0 0.143 0 0.22 0 45.684 0 85.762-24.001 108.313-60.082l0.313-0.537c4.48-7.082 8.483-15.234 11.586-23.816l0.279-0.884h0.001l0.009-0.031c4.612-12.707 7.279-27.374 7.279-42.664 0-10.081-1.159-19.892-3.352-29.305l0.171 0.869c-0.253-1.067-0.399-2.291-0.399-3.549 0-8.837 7.163-16.001 16-16.001h117.19c2.553-12.232 7.588-22.997 14.577-32.197l-0.143 0.197h-193.767c20.816 20.354 33.723 48.722 33.723 80.105 0 61.856-50.144 112-112 112s-112-50.144-112-112c0-31.382 12.907-59.75 33.702-80.084l0.021-0.020h-113.723v-32h960v32h-368.044c10.015 13.166 16.044 29.838 16.044 47.918 0 0.029 0 0.057 0 0.086v-0.004zM144 176c0 44.183 35.817 80 80 80s80-35.817 80-80c0-44.183-35.817-80-80-80v0c-44.162 0.052-79.948 35.838-80 79.995v0.005zM272 328.612v39.388h34.883l12.781-63.894c-13.625 10.292-29.448 18.63-46.527 24.186l-1.137 0.32zM380.803 208h83.197c8.837 0 16 7.163 16 16v0 61.552l80-11.429v-50.123c-38.502-0.052-70.638-27.249-78.298-63.477l-0.093-0.523h-98.407c0.531 5.308 0.797 10.651 0.797 16 0 0.033 0 0.073 0 0.112 0 11.287-1.164 22.302-3.379 32.931l0.182-1.043zM512 144c0 26.51 21.49 48 48 48s48-21.49 48-48c0-26.51-21.49-48-48-48v0c-26.497 0.031-47.969 21.503-48 47.997v0.003zM32 0h960v-32h-960zM32 480h960v-32h-960zM592 384h400v-32h-400zM32 384h176v-32h-176zM624 288h368v-32h-368zM32 288h80v-32h-80zM672 192h320v-32h-320zM32 192h48v-32h-48z" />
<glyph unicode="&#xe933;" glyph-name="information" d="M912 880h-800c-44.162-0.052-79.948-35.838-80-79.995v-512.005c0.052-44.162 35.838-79.948 79.995-80h304.005v-96h-64c-44.162-0.052-79.948-35.838-80-79.995v-0.005c0-8.836 7.164-16 16-16h448c8.836 0 16 7.164 16 16v0c-0.052 44.162-35.838 79.948-79.995 80h-64.005v96h304c44.162 0.052 79.948 35.838 80 79.995v512.005c-0.052 44.162-35.838 79.948-79.995 80h-0.005zM112 848h800c26.497-0.031 47.969-21.503 48-47.997v-496.003h-896v496c0.031 26.497 21.503 47.969 47.997 48h0.003zM717.258 48h-410.516c6.81 18.788 24.491 31.975 45.255 32h320.003c20.767-0.025 38.448-13.212 45.152-31.665l0.106-0.335zM576 112h-128v96h128zM912 240h-800c-20.764 0.027-38.441 13.214-45.141 31.665l-0.106 0.335h890.496c-6.807-18.786-24.484-31.972-45.245-32h-0.003zM912 640c8.836 0 16 7.164 16 16v0 64h-0.029c0 0.020 0 0.043 0 0.067 0 2.583-0.613 5.022-1.702 7.181l0.042-0.092-16 32c-1.149 2.266-2.739 4.155-4.671 5.615l-0.040 0.029-64 48c-2.641 1.997-5.98 3.199-9.6 3.199h-176c-0.003 0-0.005 0-0.008 0-3.617 0-6.953-1.202-9.631-3.228l0.040 0.029-64-48c-1.972-1.49-3.562-3.378-4.669-5.554l-0.042-0.091-16-32c-1.065-2.085-1.689-4.547-1.689-7.156 0 0 0 0 0-0.001v0h-64v16h-32v-16h-64v16h-32v-16h-64v16h-32v-16h-64v16h-32v-16h-80v-32h80v-16h-80v-32zM752 672v32h144v-32zM883.379 741.467l2.732-5.467h-140.223l-11.578 23.156c-1.149 2.266-2.739 4.155-4.671 5.615l-0.040 0.029-25.599 19.199h122.665zM592 716.223l12.621 25.244 51.379 38.533 51.379-38.533 12.621-25.244v-44.223h-48v32h-32v-32h-48zM560 688v-16h-64v16zM464 688v-16h-64v16zM368 688v-16h-64v16zM208 688h64v-16h-64zM112 412.223v-12.223h128v12.223c0 0.042 0 0.091 0 0.14 0 16.267 9.323 30.357 22.918 37.217l0.239 0.109-14.312 28.621c-24.4-12.294-40.844-37.146-40.844-65.84 0-0.087 0-0.174 0-0.262v10.102c0 0.029 0 0.064 0 0.098 0 31.69 16.091 59.622 40.547 76.071l0.328 0.208-17.75 26.625c-33.425-22.463-55.125-60.132-55.125-102.869 0-0.047 0-0.093 0-0.14v12.442c0 0.1 0 0.219 0 0.338 0 34.481-14.025 65.687-36.681 88.225l-0.005 0.005-22.629-22.629c16.873-16.783 27.315-40.016 27.315-65.689 0-0.088 0-0.177 0-0.265v0.014-22.523c0 0.074 0 0.161 0 0.248 0 28.693-16.445 53.546-40.423 65.647l-0.421 0.193-14.312-28.621c13.833-6.97 23.156-21.059 23.156-37.327 0-0.049 0-0.099 0-0.148v0.008zM864 348.223v10.088c0 0.029 0 0.064 0 0.098 0 31.69 16.091 59.622 40.547 76.071l0.328 0.208-17.75 26.625c-33.425-22.463-55.125-60.132-55.125-102.869 0-0.047 0-0.093 0-0.14v12.442c0 0.1 0 0.219 0 0.338 0 34.481-14.025 65.687-36.681 88.225l-0.005 0.005-22.629-22.629c16.873-16.783 27.315-40.016 27.315-65.689 0-0.088 0-0.176 0-0.265v0.014-22.523c0 0.074 0 0.161 0 0.248 0 28.693-16.445 53.546-40.423 65.647l-0.421 0.193-14.312-28.621c13.833-6.97 23.156-21.059 23.156-37.327 0-0.049 0-0.099 0-0.148v0.008-12.223h128v12.223c0 0.042 0 0.091 0 0.14 0 16.267 9.323 30.357 22.918 37.217l0.239 0.109-14.312 28.621c-24.4-12.294-40.844-37.146-40.844-65.84 0-0.087 0-0.174 0-0.262v0.014zM292.686 539.314l-32-32 22.629-22.629 27.313 27.314h41.373v32h-48c-4.418 0-8.418-1.791-11.315-4.686v0zM384 544h32v-32h-32v32zM448 544h64v-32h-64v32zM544 544h64v-32h-64v32zM715.314 459.314c-2.896 2.895-6.896 4.685-11.314 4.686h-32v-32h25.373l27.313-27.314 22.629 22.629zM512 464h32v-32h-32v32zM576 464h64v-32h-64v32z" />
<glyph unicode="&#xe934;" glyph-name="farmer" d="M304 656h32v-32h-32v32zM464 656h32v-32h-32v32zM400 496c35.346 0 64 28.654 64 64v0h-32c0-17.673-14.327-32-32-32s-32 14.327-32 32v0h-32c0-35.346 28.654-64 64-64v0zM592 187.552v20.448h-32v-32c0-0.015 0-0.033 0-0.051 0-4.466-1.879-8.493-4.889-11.334l-0.008-0.007c-2.783-2.845-6.66-4.609-10.95-4.609-0.054 0-0.108 0-0.162 0.001h0.008c-8.837 0-16 7.163-16 16v0 155.2l11.2-3.52 9.6 30.56-68.8 21.504v55.744c57.406 29.481 96 88.283 96 156.1 0 0.145 0 0.29-0.001 0.435v-0.022 16c0.063 0 0.137 0 0.212 0 26.395 0 47.792 21.397 47.792 47.792 0 12.426-4.743 23.745-12.516 32.245l0.033-0.036h28.48c26.51 0 48 21.49 48 48s-21.49 48-48 48v0h-64v128c0 8.837-7.163 16-16 16v0h-320c-8.837 0-16-7.163-16-16v0-128h-64c-26.51 0-48-21.49-48-48s21.49-48 48-48v0h28.48c-7.741-8.463-12.484-19.782-12.484-32.208 0-26.395 21.397-47.792 47.792-47.792 0.074 0 0.149 0 0.223 0.001h-0.012v-16c0.013-67.955 38.582-126.898 95.021-156.147l0.979-0.461v-55.632l-132.432-41.44c-72.153-22.703-123.569-88.998-123.569-167.301 0-0.218 0-0.435 0.001-0.652v0.034-10.4h-16c-8.837 0-16-7.163-16-16v0-64c0-8.837 7.163-16 16-16v0h16v-80c0-8.837 7.163-16 16-16v0h608v32h-80v64h80v32h-80v32h80v32h-80c-0.037 11.726-6.397 21.959-15.848 27.47l-0.152 0.082zM496 341.152v-149.152h-192v149.232l19.088 5.968c9.323-34.341 40.216-59.181 76.912-59.181s67.589 24.841 76.783 58.624l0.129 0.558zM240 321.2l32 10.016v-155.216c0-8.837-7.163-16-16-16v0c-0.015 0-0.033 0-0.051 0-4.466 0-8.493 1.879-11.334 4.889l-0.007 0.008c-2.845 2.783-4.609 6.66-4.609 10.95 0 0.054 0 0.108 0.001 0.162v-0.008zM352 422.88c14.374-4.361 30.894-6.872 48-6.872s33.626 2.511 49.211 7.184l-1.211-0.312v-54.88c0-26.51-21.49-48-48-48s-48 21.49-48 48v0zM576 640v32c8.837 0 16-7.163 16-16s-7.163-16-16-16v0zM544 896v-48h-288v48zM256 816h288v-32h-288zM144 736c0 8.837 7.163 16 16 16v0h480c8.837 0 16-7.163 16-16s-7.163-16-16-16v0h-480c-8.837 0-16 7.163-16 16v0zM208 656c0 8.837 7.163 16 16 16v0-32c-8.837 0-16 7.163-16 16v0zM256 592v96h288v-96c0-79.529-64.471-144-144-144s-144 64.471-144 144v0zM96 170.4c-0.001 0.149-0.001 0.326-0.001 0.503 0 64.065 42.070 118.304 100.091 136.597l1.014 0.276 10.896 3.408v-123.632c-9.603-5.593-15.963-15.826-16-27.547v-0.005h-96zM64 128h128v-32h-128zM96 64h96v-64h-96zM224 0v140.576c8.36-7.792 19.613-12.576 31.984-12.576 0.006 0 0.011 0 0.017 0h-0.001c20.695 0.089 38.29 13.259 44.95 31.666l0.106 0.334h197.888c6.766-18.741 24.361-31.911 45.045-32h0.011c0.029 0 0.064 0 0.099 0 12.336 0 23.559 4.765 31.93 12.554l-0.029-0.026v-140.528zM994.96 283.104l-164.8 111.536-14.16 198.496c-0.611 8.334-7.523 14.864-15.96 14.864-0.014 0-0.028 0-0.043 0h-31.998c-0.012 0-0.026 0-0.040 0-8.437 0-15.348-6.53-15.957-14.812l-0.003-0.052-14.176-198.496-164.8-111.536c-4.27-2.917-7.036-7.762-7.036-13.253 0-2.943 0.795-5.701 2.181-8.070l-0.041 0.076 16-27.712c2.819-4.81 7.963-7.988 13.85-7.988 2.528 0 4.919 0.586 7.044 1.63l-0.094-0.042 129.6 62.976-1.072-22.4c-1.84 0.928-3.728 1.6-5.52 2.704l-16-27.712c5.563-3.243 12.113-6.39 18.917-9.029l0.971-0.331-1.6-33.424c-22.491 7.244-41.96 18.11-58.766 32.071l0.286-0.231-20.32-24.688c21.671-17.976 47.531-31.751 75.841-39.653l1.455-0.347-8.72-182.928c-0.011-0.225-0.018-0.488-0.018-0.752 0-8.837 7.163-16 16-16 0.006 0 0.012 0 0.019 0h95.999c0.005 0 0.011 0 0.018 0 8.837 0 16 7.163 16 16 0 0.264-0.006 0.527-0.019 0.789l0.001-0.037-8.704 182.8c30.904 8.606 57.698 23.201 80.278 42.569l-0.278-0.233-20.8 24.304c-17.066-14.644-37.294-26.169-59.464-33.395l-1.24-0.349-1.6 33.6c8.581 3.251 15.871 6.803 22.783 10.922l-0.655-0.362-16.56 27.392c-2.352-1.424-4.8-2.496-7.28-3.728l-1.072 22.4 129.6-62.976c2.031-1.002 4.422-1.588 6.95-1.588 5.886 0 11.030 3.179 13.809 7.913l0.041 0.075 16 27.712c1.366 2.307 2.174 5.086 2.174 8.052 0 5.485-2.76 10.326-6.967 13.208l-0.055 0.035zM800 368.32v-0.48c-0.071-6.374-3.858-11.846-9.293-14.359l-0.099-0.041-0.592-0.272c-1.766-0.769-3.823-1.216-5.984-1.216s-4.218 0.447-6.083 1.255l0.099-0.038-0.592 0.272c-5.534 2.554-9.321 8.026-9.392 14.391v0.489c0.757 8.2 7.603 14.57 15.936 14.57s15.179-6.371 15.931-14.507l0.005-0.063zM785.104 576l11.568-161.904c-3.79 1.206-8.15 1.9-12.672 1.9s-8.882-0.695-12.978-1.983l0.306 0.083 11.568 161.904zM604.416 263.040l-1.104 1.92 134.4 90.944c2.26-8.654 6.634-16.088 12.543-21.983l0.001-0.001zM815.216 0h-62.4l7.696 161.6c6.955-0.92 15.098-1.498 23.356-1.599l0.132-0.001c8.393 0.095 16.547 0.673 24.558 1.71l-1.038-0.11zM806 193.6c-6.606-0.875-14.245-1.374-22-1.374s-15.394 0.499-22.886 1.467l0.886-0.093 1.52 32c6.155-0.988 13.252-1.552 20.48-1.552s14.325 0.564 21.248 1.651l-0.768-0.099zM802.944 257.856c-5.695-1.023-12.251-1.608-18.944-1.608s-13.249 0.585-19.62 1.706l0.676-0.099 2.336 48.816 16.608 8.048 16.608-8zM963.584 263.104l-145.856 70.88c5.91 5.896 10.284 13.331 12.47 21.651l0.074 0.333 134.4-90.944zM896 368h32c-0.030 53.923-29.659 100.92-73.518 125.626l-0.722 0.374-15.52-27.984c34.683-19.509 57.734-56.068 57.76-98.012v-0.004zM640 368h32c0.026 41.948 23.077 78.507 57.198 97.725l0.562 0.291-15.52 27.984c-44.581-25.080-74.21-72.077-74.24-125.996v-0.004zM960 368c0-0.024 0-0.052 0-0.080 0-10.336-0.885-20.466-2.582-30.318l0.15 1.054 31.552-5.312c1.833 10.377 2.88 22.325 2.88 34.517 0 90.075-57.181 166.794-137.223 195.839l-1.449 0.46-10.656-30.16c68.9-24.984 117.252-89.835 117.328-165.99v-0.010zM576 368c0.001-12.241 1.049-24.238 3.058-35.905l-0.178 1.249 31.552 5.312c-1.548 8.774-2.432 18.876-2.432 29.185 0 76.23 48.375 141.161 116.102 165.769l1.227 0.39-10.656 30.16c-81.434-29.509-138.585-106.149-138.672-196.149v-0.011z" />
<glyph unicode="&#xe935;" glyph-name="setting" d="M640 848c0-8.837-7.163-16-16-16s-16 7.163-16 16c0 8.837 7.163 16 16 16s16-7.163 16-16zM704 848c0-8.837-7.163-16-16-16s-16 7.163-16 16c0 8.837 7.163 16 16 16s16-7.163 16-16zM448 864h128v-32h-128zM448 64h128v-32h-128zM880.603 384.803c9.619 12.98 15.398 29.31 15.398 46.989 0 0.073 0 0.146 0 0.219v-0.011c-0.1 73.85-55.703 134.683-127.327 143.026l-0.673 0.064v304.91c-0.031 26.497-21.503 47.969-47.997 48h-416.003c-26.497-0.031-47.969-21.503-48-47.997v-187.474c-23.523 26.709-57.795 43.471-95.983 43.471-0.006 0-0.012 0-0.018 0h0.001c0 0 0 0-0.001 0-7.999 0-14.626-5.87-15.81-13.537l-0.011-0.089-48-320c-0.113-0.711-0.178-1.53-0.178-2.364 0-0.003 0-0.006 0-0.009v0-217.372l-59.314-59.315 22.629-22.627 52.686 52.685 36.686-36.686 22.629 22.627-43.314 43.314v216.18l16.979 113.193h63.021c8.837 0 16 7.163 16 16v0 80c-0.045 32.193-23.82 58.82-54.769 63.328l-0.346 0.041 4.75 31.666c46.801-6.969 82.304-46.847 82.365-95.029v-112.007h-48v-32h48v-448c0.031-26.497 21.503-47.969 47.997-48h416.003c26.497 0.031 47.969 21.503 48 47.997v16.047c13.21-10.016 29.923-16.044 48.044-16.044 44.159 0 79.956 35.798 79.956 79.956 0 0.015 0 0.031 0 0.046v-0.002c0 0.012 0 0.027 0 0.042 0 23.64-5.699 45.948-15.799 65.627l0.378-0.81c9.634 13.003 15.421 29.362 15.421 47.072 0 0.025 0 0.049 0 0.074v-0.004c0 0.048 0 0.105 0 0.163 0 23.598-5.701 45.864-15.8 65.497l0.376-0.805c9.635 13.004 15.423 29.364 15.423 47.075 0 0.025 0 0.049 0 0.074v-0.004c0 0.048 0 0.105 0 0.161 0 23.578-5.691 45.826-15.774 65.447l0.376-0.806zM192 608v-64h-42.221l14.355 95.702c15.789-2.128 27.837-15.503 27.865-31.699v-0.003zM864 208c0-26.51-21.49-48-48-48s-48 21.49-48 48v0 48.044c13.189-10.015 29.882-16.044 47.983-16.044 14.585 0 28.256 3.914 40.020 10.749l-0.381-0.205c5.299-12.55 8.379-27.14 8.379-42.45 0-0.033 0-0.067 0-0.1v0.005zM768 368.044c13.208-10.016 29.92-16.044 48.040-16.044 14.567 0 28.224 3.896 39.985 10.703l-0.385-0.205c5.287-12.536 8.359-27.111 8.359-42.402 0-0.033 0-0.067 0-0.1v0.005c0-26.51-21.49-48-48-48s-48 21.49-48 48v0zM864 432c0-0.038 0-0.083 0-0.128 0-13.215-5.375-25.175-14.059-33.812l-0.002-0.002v-0.001c-8.686-8.686-20.686-14.058-33.94-14.058-26.51 0-48 21.49-48 48 0 0 0 0 0 0v0 110.86c54.556-8.173 95.926-54.674 96-110.852v-0.008zM304 896h416c8.832-0.010 15.99-7.168 16-15.999v-82.753c-4.758 1.744-10.252 2.752-15.981 2.752-0.007 0-0.014 0-0.020 0h-415.999c-0.006 0-0.012 0-0.019 0-5.729 0-11.223-1.009-16.313-2.858l0.332 0.106v82.752c0.010 8.832 7.168 15.99 15.999 16h0.001zM288 752c0.010 8.832 7.168 15.99 15.999 16h416.001c8.832-0.010 15.99-7.168 16-15.999v-608.001c-0.010-8.832-7.168-15.99-15.999-16h-416.001c-8.832 0.010-15.99 7.168-16 15.999v0.001zM736 16c-0.010-8.832-7.168-15.99-15.999-16h-416.001c-8.832 0.010-15.99 7.168-16 15.999v82.753c4.758-1.744 10.252-2.752 15.981-2.752 0.007 0 0.014 0 0.020 0h415.999c0.006 0 0.012 0 0.019 0 5.729 0 11.223 1.009 16.313 2.858l-0.332-0.106zM816 48c-26.497 0.031-47.969 21.503-48 47.997v48.047c13.189-10.015 29.882-16.044 47.983-16.044 14.583 0 28.252 3.913 40.014 10.746l-0.381-0.205c5.303-12.575 8.384-27.194 8.384-42.533 0-0.003 0-0.006 0-0.009v0c-0.031-26.497-21.503-47.969-47.997-48h-0.003zM400 544h64v-32.666c-2.396 0.424-5.154 0.666-7.969 0.666-0.009 0-0.019 0-0.028 0h0.001c-21.262 0-32.564-12.916-40.043-21.464-6.967-7.962-9.742-10.536-15.961-10.536v-32c21.262 0 32.564 12.916 40.043 21.464 6.967 7.962 9.742 10.536 15.961 10.536s8.994-2.574 15.961-10.536c7.48-8.547 18.783-21.464 40.045-21.464 21.26 0 32.561 12.917 40.039 21.464 6.967 7.962 9.742 10.536 15.957 10.536 6.217 0 8.99-2.574 15.957-10.536 7.477-8.547 18.779-21.464 40.037-21.464v32c-6.215 0-8.988 2.573-15.955 10.535-7.477 8.548-18.779 21.465-40.039 21.465-0.008 0-0.017 0-0.026 0-2.819 0-5.581-0.243-8.266-0.709l0.286 0.041v96.668h64c26.497 0.031 47.969 21.503 48 47.997v64.003c0 8.837-7.163 16-16 16h-144c-26.497-0.031-47.969-21.503-48-47.997v-16.003h-96c-8.837 0-16-7.163-16-16v0-64c0.031-26.497 21.503-47.969 47.997-48h0.003zM512.010 480c-6.219 0-8.994 2.574-15.963 10.537l-0.047 0.053v69.41c0 8.837-7.163 16-16 16h-16c-8.832 0.010-15.99 7.168-16 15.999v48.001h64c8.832-0.010 15.99-7.168 16-15.999v-133.427l-0.033-0.038c-6.967-7.962-9.742-10.536-15.957-10.536zM640 656c-0.010-8.832-7.168-15.99-15.999-16h-18.753c1.744 4.758 2.752 10.251 2.752 15.98 0 0.007 0 0.014 0 0.021v-0.001 48h32zM496 688c0.010 8.832 7.168 15.99 15.999 16h64.001v-48c-0.010-8.832-7.168-15.99-15.999-16h-2.753c-6.807 18.787-24.484 31.973-45.244 32h-16.003zM384 640h32v-48c0-0.006 0-0.013 0-0.020 0-5.729 1.009-11.222 2.858-16.312l-0.106 0.332h-18.752c-8.832 0.010-15.99 7.168-16 15.999v0.001zM368 160h32v64h32v32h-32v160h-32v-160h-32v-32h32zM528 416h-32v-112h-32v-32h32v-112h32v112h32v32h-32zM656 416h-32v-64h-32v-32h32v-160h32v160h32v32h-32z" />
<glyph unicode="&#xe936;" glyph-name="conveyor" d="M960 720.034c19.474 14.773 31.939 37.908 32 63.956v64.010c-0.052 44.162-35.838 79.948-79.995 80h-336.005c-26.094-0.002-49.267-12.508-63.853-31.853l-0.147-0.203c-14.733 19.548-37.906 32.054-64 32.056h-336c-44.162-0.052-79.948-35.838-80-79.995v-64.005c0.061-26.059 12.526-49.194 31.801-63.822l0.199-0.145v-544.078c-19.515-14.734-31.998-37.887-32-63.956v0-64c0.052-44.162 35.838-79.948 79.995-80h336.005c26.094 0.002 49.267 12.508 63.853 31.853l0.147 0.203c14.733-19.548 37.906-32.054 64-32.056h336c44.162 0.052 79.948 35.838 80 79.995v64.005c-0.002 26.069-12.485 49.222-31.798 63.81l-0.202 0.146zM959.308 776.069c-3.995 22.813-23.655 39.931-47.313 39.931-26.507 0-47.995-21.488-47.995-47.995 0-0.001 0-0.003 0-0.004v0-32h-64v32c0 26.51-21.49 48-48 48s-48-21.49-48-48v0-32h-64v32c0 26.51-21.49 48-48 48s-48-21.49-48-48v0-19.772c-9.839 8.827-16 21.582-16 35.775 0 26.508 21.489 47.996 47.996 47.996 0.001 0 0.003 0 0.004 0h336c26.497-0.031 47.969-21.503 48-47.997v-0.003c-0.009-2.808-0.26-5.552-0.734-8.218l0.042 0.287zM960 112v-0.044c-13.166 10.015-29.838 16.044-47.918 16.044-0.029 0-0.057 0-0.086 0h-335.996c-0.024 0-0.053 0-0.082 0-18.080 0-34.752-6.029-48.115-16.187l0.196 0.143v0.044c0.031 26.497 21.503 47.969 47.997 48h336.003c26.497-0.031 47.969-21.503 48-47.997v-0.003zM480 185.3v202.751c9.603-2.573 20.629-4.051 32-4.051s22.397 1.478 32.896 4.252l-0.896-0.201v-202.751c-12.951-5.775-23.72-14.412-31.854-25.155l-0.146-0.201c-8.28 10.944-19.049 19.581-31.49 25.152l-0.51 0.204zM160 704h64v-167.817c-9.289 4.925-20.307 7.817-32 7.817s-22.711-2.892-32.378-7.999l0.378 0.182zM288 465.734c-0.936 1.766-1.87 3.535-2.838 5.267-8.516 15.476-18.19 28.836-29.289 40.861l0.127-0.139v256.278c0 8.837 7.163 16 16 16s16-7.163 16-16v0zM192 512c21.35 0 45.123-20.634 65.229-56.609 18.406-32.935 30.771-74.484 30.771-103.391 0-53.019-42.981-96-96-96s-96 42.981-96 96v0c0 28.906 12.365 70.456 30.771 103.391 20.105 35.976 43.879 56.609 65.229 56.609zM192 224c0.024 0 0.052 0 0.081 0 11.343 0 22.34 1.478 32.811 4.251l-0.892-0.201v-36.051h-64v36.051c9.579-2.573 20.576-4.051 31.919-4.051 0.028 0 0.057 0 0.085 0h-0.005zM256 241.22c12.349 7.242 22.903 15.965 31.881 26.114l0.119 0.137v-75.471h-32zM320 704h64v-512h-64zM480 710.663c12.964 5.74 23.738 14.374 31.854 25.126l0.146 0.202c8.262-10.955 19.037-19.589 31.492-25.127l0.508-0.202v-14.48c-9.289 4.925-20.307 7.817-32 7.817s-22.711-2.892-32.378-7.999l0.378 0.182zM640 704h64v-512h-64zM800 704h64v-167.817c-9.289 4.925-20.307 7.817-32 7.817s-22.711-2.892-32.378-7.999l0.378 0.182zM768 511.722c-10.971-11.885-20.646-25.245-28.629-39.671l-0.533-1.051c-0.968-1.732-1.902-3.5-2.838-5.267v302.266c0 8.837 7.163 16 16 16s16-7.163 16-16v0zM736 192v75.471c9.097-10.286 19.651-19.009 31.397-25.923l0.603-0.328v-49.22zM416 512c0 28.906 12.365 70.456 30.771 103.391 20.105 35.976 43.879 56.609 65.229 56.609s45.123-20.634 65.229-56.609c18.406-32.935 30.771-74.484 30.771-103.391 0-53.019-42.981-96-96-96s-96 42.981-96 96v0zM576 401.22c12.349 7.242 22.903 15.965 31.881 26.114l0.119 0.137v-235.471h-32zM608 625.734c-0.936 1.766-1.87 3.535-2.838 5.267-8.516 15.476-18.19 28.836-29.289 40.861l0.127-0.139v96.278c0 8.837 7.163 16 16 16s16-7.163 16-16v0zM448 671.722c-10.972-11.886-20.646-25.245-28.629-39.671l-0.533-1.051c-0.968-1.732-1.902-3.5-2.838-5.267v142.266c0 8.837 7.163 16 16 16s16-7.163 16-16v0zM416 427.471c9.097-10.286 19.651-19.009 31.397-25.923l0.603-0.328v-209.22h-32zM800 192v36.051c9.603-2.573 20.629-4.051 32-4.051s22.397 1.478 32.896 4.252l-0.896-0.201v-36.051zM832 256c-52.995 0.061-95.939 43.005-96 95.994v0.006c0 28.906 12.365 70.456 30.771 103.391 20.105 35.976 43.879 56.609 65.229 56.609s45.123-20.634 65.229-56.609c18.406-32.935 30.771-74.484 30.771-103.391-0.061-52.995-43.005-95.939-95.994-96h-0.006zM576 896h336c26.497-0.031 47.969-21.503 48-47.997v-0.047c-13.166 10.015-29.838 16.044-47.918 16.044-0.029 0-0.057 0-0.086 0h-335.996c-0.024 0-0.053 0-0.082 0-18.080 0-34.752-6.029-48.115-16.187l0.196 0.143v0.044c0.031 26.497 21.503 47.969 47.997 48h0.003zM112 896h336c26.497-0.031 47.969-21.503 48-47.997v-0.047c-13.166 10.015-29.838 16.044-47.918 16.044-0.029 0-0.057 0-0.086 0h-335.996c-0.024 0-0.053 0-0.082 0-18.080 0-34.752-6.029-48.115-16.187l0.196 0.143v0.044c0.031 26.497 21.503 47.969 47.997 48h0.003zM112 832h336c0.001 0 0.002 0 0.004 0 26.508 0 47.996-21.489 47.996-47.996 0-14.194-6.161-26.949-15.955-35.736l-0.045-0.040v19.772c0 26.51-21.49 48-48 48s-48-21.49-48-48v0-32h-64v32c0 26.51-21.49 48-48 48s-48-21.49-48-48v0-32h-64v32c0 0.001 0 0.003 0 0.004 0 26.507-21.488 47.995-47.995 47.995-23.658 0-43.318-17.117-47.271-39.642l-0.042-0.288c-0.431 2.379-0.683 5.123-0.692 7.923v0.008c0.031 26.497 21.503 47.969 47.997 48h0.003zM96 768c0 8.837 7.163 16 16 16s16-7.163 16-16v0-256.278c-10.971-11.885-20.646-25.245-28.629-39.671l-0.533-1.051c-0.968-1.732-1.902-3.5-2.838-5.267zM96 267.471c9.097-10.286 19.651-19.009 31.397-25.923l0.603-0.328v-49.22h-16c-0.008 0-0.017 0-0.026 0-5.654 0-11.172-0.586-16.495-1.701l0.521 0.091zM112 160h336c26.497-0.031 47.969-21.503 48-47.997v-0.047c-13.166 10.015-29.838 16.044-47.918 16.044-0.029 0-0.057 0-0.086 0h-335.996c-0.024 0-0.053 0-0.082 0-18.080 0-34.752-6.029-48.115-16.187l0.196 0.143v0.044c0.031 26.497 21.503 47.969 47.997 48h0.003zM448 0h-336c-26.51 0-48 21.49-48 48s21.49 48 48 48v0h336c26.51 0 48-21.49 48-48s-21.49-48-48-48v0zM912 0h-336c-26.51 0-48 21.49-48 48s21.49 48 48 48v0h336c26.51 0 48-21.49 48-48s-21.49-48-48-48v0zM928 190.39c-4.802 1.024-10.32 1.61-15.974 1.61-0.009 0-0.018 0-0.028 0h-15.998v49.22c12.349 7.242 22.903 15.965 31.881 26.114l0.119 0.137zM925.162 471.001c-8.516 15.476-18.19 28.836-29.289 40.861l0.127-0.139v256.278c0 8.837 7.163 16 16 16s16-7.163 16-16v0-302.266c-0.936 1.766-1.87 3.535-2.838 5.267zM128 48c0-8.837-7.163-16-16-16s-16 7.163-16 16c0 8.837 7.163 16 16 16s16-7.163 16-16zM288 48c0-8.837-7.163-16-16-16s-16 7.163-16 16c0 8.837 7.163 16 16 16s16-7.163 16-16zM448 48c0-8.837-7.163-16-16-16s-16 7.163-16 16c0 8.837 7.163 16 16 16s16-7.163 16-16zM608 48c0-8.837-7.163-16-16-16s-16 7.163-16 16c0 8.837 7.163 16 16 16s16-7.163 16-16zM768 48c0-8.837-7.163-16-16-16s-16 7.163-16 16c0 8.837 7.163 16 16 16s16-7.163 16-16zM928 48c0-8.837-7.163-16-16-16s-16 7.163-16 16c0 8.837 7.163 16 16 16s16-7.163 16-16z" />
<glyph unicode="&#xe937;" glyph-name="error" d="M512 960c-282.312 0-512-229.688-512-512s229.688-512 512-512 512 229.688 512 512-229.688 512-512 512zM719.080 301.252c8.334-8.33 8.334-21.838 0-30.17l-30.16-30.162c-8.334-8.33-21.838-8.33-30.172 0l-146.748 146.746-146.748-146.748c-8.334-8.33-21.838-8.33-30.172 0l-30.162 30.164c-8.334 8.33-8.334 21.838 0 30.17l146.748 146.75-146.748 146.748c-8.334 8.33-8.334 21.838 0 30.17l30.162 30.164c8.334 8.33 21.838 8.33 30.172 0l146.748-146.748 146.748 146.748c8.334 8.33 21.838 8.33 30.172 0l30.162-30.164c8.334-8.33 8.334-21.838 0-30.17l-146.748-146.748 146.746-146.75z" />
<glyph unicode="&#xe938;" glyph-name="minus" d="M512 960c-282.326 0-512-229.674-512-512s229.674-512 512-512 512 229.674 512 512-229.674 512-512 512zM768 405.334h-511.914c-23.552 0-42.666 19.114-42.666 42.666s19.114 42.666 42.666 42.666h511.914c23.552 0 42.666-19.114 42.666-42.666s-19.114-42.666-42.666-42.666z" />
<glyph unicode="&#xe939;" glyph-name="pdf" d="M1023.723 491.989c-0.128 1.941-0.491 3.797-1.131 5.632-0.235 0.683-0.405 1.344-0.704 2.005-1.024 2.219-2.325 4.309-4.117 6.080-0.021 0.021-0.021 0.021-0.021 0.021l-121.749 121.771v119.168c0 0.469-0.235 0.875-0.277 1.344-0.128 1.877-0.491 3.691-1.088 5.483-0.235 0.683-0.405 1.344-0.725 2.005-1.045 2.261-2.347 4.416-4.181 6.251l-192 192c-1.835 1.835-3.989 3.157-6.272 4.203-0.64 0.277-1.28 0.469-1.92 0.683-1.835 0.64-3.712 1.003-5.632 1.131-0.427 0.021-0.811 0.235-1.237 0.235h-533.333c-11.776 0-21.333-9.557-21.333-21.333v-311.168l-121.749-121.749c0 0-0.021-0.021-0.043-0.043-1.792-1.792-3.072-3.883-4.096-6.080-0.299-0.661-0.469-1.323-0.704-2.005-0.64-1.835-1.024-3.691-1.131-5.632-0.043-0.469-0.277-0.853-0.277-1.323v-405.333c0-11.776 9.557-21.333 21.333-21.333h106.667v-106.667c0-11.776 9.557-21.333 21.333-21.333h725.333c11.776 0 21.333 9.557 21.333 21.333v106.667h106.667c11.776 0 21.333 9.557 21.333 21.333v405.333c0 0.469-0.235 0.853-0.277 1.323zM951.168 512h-55.168v55.168l55.168-55.168zM823.168 768h-119.168v119.168l119.168-119.168zM170.667 917.333h490.667v-170.667c0-11.776 9.557-21.333 21.333-21.333h170.667v-213.333h-682.667v405.333zM128 567.168v-55.168h-55.168l55.168 55.168zM853.333-21.333h-682.667v85.333h682.667v-85.333zM981.333 106.667h-938.667v362.667h938.667v-362.667zM389.419 389.973c-6.891 5.909-14.677 10.091-23.403 12.501-8.704 2.411-17.173 3.627-25.387 3.627h-71.083v-256.768h42.795v102.997h30.464c8.939 0 17.643 1.579 26.112 4.715s15.957 7.979 22.485 14.507c6.528 6.528 11.776 14.677 15.787 24.491 3.989 9.792 5.995 21.205 5.995 34.261 0 14.507-2.24 26.603-6.72 36.267s-10.155 17.472-17.045 23.403zM362.048 298.56c-6.528-7.125-14.869-10.688-25.024-10.688h-24.661v81.6h24.661c10.155 0 18.496-3.136 25.024-9.429s9.792-16.32 9.792-30.101c0-13.781-3.264-24.235-9.792-31.381zM655.424 149.333h43.883v110.251h65.643v37.355h-65.984v69.995h71.424v39.168h-114.965zM513.621 406.101h-64.555v-256.768h64.192c33.131 0 58.219 11.179 75.264 33.536 17.045 22.379 25.557 53.867 25.557 94.485s-8.512 72.235-25.557 94.848c-17.045 22.592-42.005 33.899-74.901 33.899zM566.4 238.016c-2.773-11.264-6.72-20.629-11.776-28.117-5.077-7.488-11.115-13.12-18.133-16.853-7.019-3.755-14.635-5.632-22.848-5.632h-20.672v180.608h20.672c8.213 0 15.829-1.877 22.848-5.632 7.019-3.733 13.056-9.365 18.133-16.853s9.003-16.917 11.776-28.288 4.181-24.661 4.181-39.893c0-14.997-1.408-28.096-4.181-39.339z" />
<glyph unicode="&#xe93a;" glyph-name="map" d="M987.439 960c-5.681 0.002-11.284-1.318-16.365-3.857l-277.134-138.604-313.375 139.299c-0.512 0.219-1.097 0.257-1.646 0.476-1.41 0.527-2.852 0.966-4.316 1.316-1.455 0.392-2.934 0.699-4.425 0.915-2.97 0.244-5.955 0.244-8.923 0-1.491-0.216-2.97-0.523-4.425-0.915-1.464-0.349-2.906-0.789-4.316-1.316-0.549-0.219-1.134-0.255-1.646-0.476l-329.138-146.284c-13.213-5.867-21.726-18.968-21.724-33.424v-804.56c0.006-12.373 6.266-23.903 16.639-30.647 10.376-6.754 23.462-7.8 34.778-2.779l314.29 139.701 314.29-139.701c0.549-0.219 1.134 0 1.682-0.33 8.854-3.96 19.018-3.733 27.683 0.621 0.585 0.255 1.243 0 1.828 0.403l292.566 146.284c12.398 6.195 20.23 18.87 20.224 32.732v804.558c0.013 20.198-16.354 36.58-36.55 36.589zM329.146 142.624l-255.997-113.771v724.504l255.997 113.773v-724.506zM658.284 28.853l-255.997 113.771v724.506l255.997-113.771v-724.506zM950.85 141.454l-219.425-109.713v722.787l219.425 109.713v-722.787z" />
<glyph unicode="&#xe93b;" glyph-name="email-1" d="M934 838h-844c-49.564 0-90-40.392-90-90v-600c0-49.44 40.256-90 90-90h844c49.44 0 90 40.256 90 90v600c0 49.44-40.256 90-90 90zM921.572 778l-407.664-407.666-411.19 407.666h818.854zM60 160.424v575.438l288.958-286.48-288.958-288.958zM102.426 118l289.14 289.14 101.314-100.444c11.728-11.628 30.654-11.59 42.334 0.092l98.786 98.786 287.574-287.574h-819.148zM964 160.426l-287.574 287.574 287.574 287.576v-575.15z" />
<glyph unicode="&#xe93c;" glyph-name="payment-security" d="M990.768 86.16l-78.768 189.040v508.8c0 26.51-21.49 48-48 48v0h-187.568l-156.192 93.712c-2.352 1.435-5.197 2.285-8.24 2.285s-5.888-0.85-8.311-2.325l0.071 0.040-156.192-93.712h-187.568c-26.51 0-48-21.49-48-48v0-508.8l-78.768-189.040c-0.779-1.819-1.232-3.935-1.232-6.157 0-0.001 0-0.002 0-0.003v0-64c0-26.51 21.49-48 48-48v0h864c26.51 0 48 21.49 48 48v0 64c0 0.001 0 0.002 0 0.003 0 2.222-0.453 4.338-1.272 6.261l0.040-0.105zM649.888 96l-27.488 55.152c-2.685 5.288-8.083 8.848-14.313 8.848-0.031 0-0.061 0-0.092 0h-191.995c-0.002 0-0.005 0-0.007 0-6.23 0-11.628-3.56-14.271-8.757l-0.042-0.091-27.568-55.152h-302.112l66.672 160h746.656l66.672-160zM614.112 96h-204.224l16 32h172.224zM512 893.344l224-134.4v-91.744c0-0.053 0-0.116 0-0.179 0-104.952-53.291-197.458-134.29-251.933l-1.086-0.688-88.624-59.2-88.624 59.2c-82.085 55.163-135.376 147.669-135.376 252.621 0 0.063 0 0.126 0 0.189v-0.010 91.68zM144 784c0 8.837 7.163 16 16 16v0h134.24l-30.48-18.288c-4.68-2.847-7.759-7.92-7.76-13.712v0-100.8c0-0.083 0-0.18 0-0.278 0-116.010 58.903-218.262 148.432-278.482l1.2-0.76 97.488-64.992c2.495-1.685 5.57-2.69 8.88-2.69s6.385 1.005 8.937 2.727l-0.057-0.036 97.488 64.992c90.73 60.98 149.632 163.232 149.632 279.242 0 0.098 0 0.195 0 0.293v-0.015 100.8c-0.001 5.792-3.080 10.865-7.689 13.672l-0.071 0.040-30.48 18.288h134.24c8.837 0 16-7.163 16-16v0-496h-736zM944 0h-864c-8.837 0-16 7.163-16 16v0 48h896v-48c0-8.837-7.163-16-16-16v0zM160 160h32v-32h-32zM224 160h32v-32h-32zM768 160h32v-32h-32zM832 160h32v-32h-32zM240 224h32v-32h-32zM176 224h32v-32h-32zM304 224h32v-32h-32zM368 224h32v-32h-32zM432 224h32v-32h-32zM496 224h32v-32h-32zM560 224h32v-32h-32zM624 224h32v-32h-32zM688 224h32v-32h-32zM752 224h32v-32h-32zM816 224h32v-32h-32zM288 160h64v-32h-64zM672 160h64v-32h-64zM384 620.48v-108.48c0-17.673 14.327-32 32-32v0h192c17.673 0 32 14.327 32 32v0 108.48c9.801 8.754 15.954 21.414 16 35.512v32.008c0 3.62-1.202 6.959-3.229 9.64l0.029-0.040-48 64c-2.95 3.904-7.583 6.4-12.8 6.4v0h-160c-5.217 0-9.85-2.496-12.771-6.36l-0.029-0.040-48-64c-1.998-2.641-3.2-5.98-3.2-9.6v-32c0.046-14.106 6.199-26.766 15.954-35.479l0.046-0.041zM528 512h-32v32h32zM608 512h-48v48c0 8.837-7.163 16-16 16v0h-64c-8.837 0-16-7.163-16-16v0-48h-48v96c12.352 0.045 23.591 4.778 32.036 12.512l-0.036-0.032c8.389-7.737 19.641-12.481 32-12.481s23.611 4.744 32.033 12.51l-0.033-0.030c8.389-7.737 19.641-12.481 32-12.481s23.611 4.744 32.033 12.51l-0.033-0.030c8.409-7.702 19.648-12.435 31.991-12.48h0.009zM400 672h224v-16c0-8.837-7.163-16-16-16s-16 7.163-16 16v0h-32c0-8.837-7.163-16-16-16s-16 7.163-16 16v0h-32c0-8.837-7.163-16-16-16s-16 7.163-16 16v0h-32c0-8.837-7.163-16-16-16s-16 7.163-16 16v0zM440 736h144l24-32h-192z" />
<glyph unicode="&#xe93d;" glyph-name="store" d="M976 0h-64v321.6c36.727 7.801 63.898 39.913 64 78.389v64.011c0 0.011 0 0.025 0 0.038 0 3.275-1.017 6.312-2.754 8.813l0.034-0.051-61.28 92v123.2c-0.082 26.477-21.523 47.918-47.992 48h-219.048c6.224 14.1 10.204 30.48 11.028 47.686l0.012 0.314c0 79.529-64.471 144-144 144s-144-64.471-144-144v0c0.836-17.52 4.816-33.9 11.386-48.885l-0.346 0.885h-219.040c-26.477-0.082-47.918-21.523-48-47.992v-123.208l-61.28-92c-1.703-2.45-2.72-5.487-2.72-8.762 0-0.013 0-0.027 0-0.040v0.002-64c0.102-38.487 27.273-70.599 63.474-78.306l0.526-0.094v-321.6h-64c-8.837 0-16-7.163-16-16s7.163-16 16-16v0h928c8.837 0 16 7.163 16 16s-7.163 16-16 16v0zM930.080 480h-88.16l-32 64h77.44zM720 448h96v-48c0-26.51-21.49-48-48-48s-48 21.49-48 48v0zM715.52 480l-21.28 64h79.84l32-64zM864 704c8.837 0 16-7.163 16-16v0-112h-334.72c29.985 37.399 58.12 79.265 82.629 123.422l2.331 4.578zM592 448h96v-48c0-26.51-21.49-48-48-48s-48 21.49-48 48v0zM589.6 480l-6.72 40-4 24h81.6l21.28-64zM560 448v-48c0-26.51-21.49-48-48-48s-48 21.49-48 48v0 48zM466.88 480l4 24 6.72 40h68.8l6.72-40 4-24zM512 896c61.827-0.073 111.927-50.174 112-111.993v-0.007c-2.089-21.208-8.481-40.54-18.291-57.663l0.371 0.703c-0.16-0.48-0.48-0.8-0.64-1.28-28.995-53.352-59.96-99.276-94.741-141.968l1.301 1.648c-33.481 41.045-64.446 86.969-91.076 135.605l-2.364 4.715c-0.16 0.48-0.48 0.8-0.64 1.28-9.439 16.42-15.831 35.752-17.872 56.363l-0.048 0.597c0.073 61.827 50.174 111.927 111.993 112h0.007zM144 688c0 8.837 7.163 16 16 16v0h233.76c26.84-48.735 54.975-90.601 86.333-129.775l-1.373 1.775h-334.72zM221.92 480l42.72 64h77.44l-32-64zM304 448v-48c0-26.51-21.49-48-48-48s-48 21.49-48 48v0 48zM336 448h96v-48c0-26.51-21.49-48-48-48s-48 21.49-48 48v0zM345.92 480l32 64h67.2l-10.72-64zM136.64 544h89.44l-42.72-64h-89.44zM80 400v48h96v-48c0-26.51-21.49-48-48-48s-48 21.49-48 48v0zM496 0h-224v256h224zM752 0h-224v256h224zM880 0h-96v272c0 8.837-7.163 16-16 16v0h-512c-8.837 0-16-7.163-16-16v0-272h-96v321.6c19.814 4.222 36.514 15.338 47.847 30.663l0.153 0.217c14.593-19.786 37.814-32.479 64-32.479s49.407 12.693 63.847 32.261l0.153 0.217c14.593-19.786 37.814-32.479 64-32.479s49.407 12.693 63.847 32.261l0.153 0.217c14.593-19.786 37.814-32.479 64-32.479s49.407 12.693 63.847 32.261l0.153 0.217c14.593-19.786 37.814-32.479 64-32.479s49.407 12.693 63.847 32.261l0.153 0.217c14.593-19.786 37.814-32.479 64-32.479s49.407 12.693 63.847 32.261l0.153 0.217c11.486-15.542 28.186-26.658 47.478-30.786l0.522-0.094zM848 400v48h96v-48c0-26.51-21.49-48-48-48s-48 21.49-48 48v0zM512 720c35.346 0 64 28.654 64 64s-28.654 64-64 64c-35.346 0-64-28.654-64-64v0c0-35.346 28.654-64 64-64v0zM512 816c17.673 0 32-14.327 32-32s-14.327-32-32-32c-17.673 0-32 14.327-32 32v0c0 17.673 14.327 32 32 32v0z" />
<glyph unicode="&#xe93e;" glyph-name="free-delivery" d="M990.128 263.136c-0.27 0.691-0.544 1.265-0.853 1.817l0.037-0.073-128 192c-2.911 4.318-7.783 7.12-13.31 7.12-0.001 0-0.002 0-0.003 0h-160c-8.837 0-16-7.163-16-16s7.163-16 16-16v0h151.44l106.656-160h-146.096c-26.51 0-48 21.49-48 48v0 64c0 8.837-7.163 16-16 16s-16-7.163-16-16v0-64c0.055-44.161 35.839-79.945 79.995-80h160.005v-96h-28.96c-8.837 0-16-7.163-16-16s7.163-16 16-16v0h44.96c8.837 0 16 7.163 16 16v0 128c-0.037 2.008-0.445 3.911-1.158 5.657l0.038-0.105c-0.256 0.633-0.508 1.154-0.789 1.657l0.037-0.073zM176 464c8.837 0 16 7.163 16 16s-7.163 16-16 16v0h-64c-8.837 0-16-7.163-16-16v0-128c0-8.837 7.163-16 16-16s16 7.163 16 16v0 48h32c8.837 0 16 7.163 16 16s-7.163 16-16 16v0h-32v32zM432 464c8.837 0 16 7.163 16 16s-7.163 16-16 16v0h-64c-8.837 0-16-7.163-16-16v0-128c0-8.837 7.163-16 16-16v0h64c8.837 0 16 7.163 16 16s-7.163 16-16 16v0h-48v32h32c8.837 0 16 7.163 16 16s-7.163 16-16 16v0h-32v32zM560 464c8.837 0 16 7.163 16 16s-7.163 16-16 16v0h-64c-8.837 0-16-7.163-16-16v0-128c0-8.837 7.163-16 16-16v0h64c8.837 0 16 7.163 16 16s-7.163 16-16 16v0h-48v32h32c8.837 0 16 7.163 16 16s-7.163 16-16 16v0h-32v32zM320 444.72v6.48c0 24.742-20.058 44.8-44.8 44.8v0h-35.2c-8.837 0-16-7.163-16-16v0-128c0-8.837 7.163-16 16-16s16 7.163 16 16v0 45.264c18.788-6.813 31.974-24.495 32-45.261v-0.003c0-8.837 7.163-16 16-16s16 7.163 16 16v0c-0.044 21.145-8.335 40.345-21.825 54.563l0.033-0.035c13.101 7.898 21.74 22.030 21.792 38.184v0.008zM256 464h19.2c7.069 0 12.8-5.731 12.8-12.8v0-6.56c0-7.069-5.731-12.8-12.8-12.8h-19.2zM784 32c26.51 0 48 21.49 48 48s-21.49 48-48 48c-26.51 0-48-21.49-48-48v0c0-26.51 21.49-48 48-48v0zM784 96c8.837 0 16-7.163 16-16s-7.163-16-16-16c-8.837 0-16 7.163-16 16v0c0 8.837 7.163 16 16 16v0zM208 32c26.51 0 48 21.49 48 48s-21.49 48-48 48c-26.51 0-48-21.49-48-48v0c0-26.51 21.49-48 48-48v0zM208 96c8.837 0 16-7.163 16-16s-7.163-16-16-16c-8.837 0-16 7.163-16 16v0c0 8.837 7.163 16 16 16v0zM976 768c8.837 0 16 7.163 16 16v0 64c-0.055 44.161-35.839 79.945-79.995 80h-656.005c-8.837 0-16-7.163-16-16s7.163-16 16-16v0h368.416c-10.187-13.14-16.353-29.844-16.416-47.985v-32.015h-160c-8.837 0-16-7.163-16-16s7.163-16 16-16v0h160v-64h-80c-8.837 0-16-7.163-16-16s7.163-16 16-16v0h80v-32c0.064-18.2 6.261-34.939 16.629-48.274l-0.133 0.178c-0.176 0-0.32 0.096-0.496 0.096h-352c-8.837 0-16-7.163-16-16s7.163-16 16-16v0h336v-320h-544v320h144c8.837 0 16 7.163 16 16s-7.163 16-16 16v0h-160c-8.837 0-16-7.163-16-16v0-464c0-8.837 7.163-16 16-16v0h52.8c-3.025-9.691-4.767-20.835-4.767-32.385 0-62.068 50.316-112.384 112.384-112.384s112.384 50.316 112.384 112.384c0 62.068-50.316 112.384-112.384 112.384-37.963 0-71.53-18.823-91.876-47.646l-0.237-0.353h-52.304v80h544v-80h-252.96c-8.837 0-16-7.163-16-16s7.163-16 16-16v0h321.76c-3.025-9.691-4.767-20.835-4.767-32.385 0-62.068 50.316-112.384 112.384-112.384s112.384 50.316 112.384 112.384c0 62.068-50.316 112.384-112.384 112.384-37.963 0-71.53-18.823-91.876-47.646l-0.237-0.353h-52.304v448c0 0.176-0.096 0.32-0.096 0.496 13.157-10.235 29.896-16.432 48.081-16.496h80.015v-64c0.002-8.835 7.165-15.997 16-15.997 4.417 0 8.417 1.79 11.312 4.685l75.312 75.312h25.376c52.997 0.055 95.945 43.003 96 95.995v48.005c0 8.837-7.163 16-16 16s-16-7.163-16-16v0-48c0-35.346-28.654-64-64-64v0h-32c-4.418-0.001-8.417-1.792-11.312-4.688l-52.688-52.688v41.376c0 8.837-7.163 16-16 16v0h-96c-26.51 0-48 21.49-48 48v0 192c0 26.51 21.49 48 48 48v0h224c26.51 0 48-21.49 48-48v0-64c0-8.837 7.163-16 16-16v0zM208 160c44.183 0 80-35.817 80-80s-35.817-80-80-80c-44.183 0-80 35.817-80 80v0c0.055 44.161 35.839 79.945 79.995 80h0.005zM784 160c44.183 0 80-35.817 80-80s-35.817-80-80-80c-44.183 0-80 35.817-80 80v0c0.055 44.161 35.839 79.945 79.995 80h0.005zM752 640h96c26.51 0 48 21.49 48 48v0 18.944c18.799 6.689 32.015 24.329 32.015 45.056s-13.217 38.367-31.682 44.952l-0.333 0.104v18.944c0 26.51-21.49 48-48 48v0h-96c-26.51 0-48-21.49-48-48v0-18.944c-18.799-6.689-32.015-24.329-32.015-45.056s13.217-38.367 31.682-44.952l0.333-0.104v-18.944c0-26.51 21.49-48 48-48v0zM848 672h-96c-8.837 0-16 7.163-16 16v0 16h128v-16c0-8.837-7.163-16-16-16v0zM752 832h96c8.837 0 16-7.163 16-16v0-16h-128v16c0 8.837 7.163 16 16 16v0zM720 768h16c0-8.837 7.163-16 16-16s16 7.163 16 16v0h16c0-8.837 7.163-16 16-16s16 7.163 16 16v0h16c0-8.837 7.163-16 16-16s16 7.163 16 16v0h16c8.837 0 16-7.163 16-16s-7.163-16-16-16v0h-160c-8.837 0-16 7.163-16 16s7.163 16 16 16v0zM448 656c0 8.837-7.163 16-16 16v0h-240c-8.837 0-16-7.163-16-16s7.163-16 16-16v0h240c8.837 0 16 7.163 16 16v0zM304 720c8.837 0 16 7.163 16 16s-7.163 16-16 16v0h-48c-8.837 0-16-7.163-16-16s7.163-16 16-16v0zM144 816h160c8.837 0 16 7.163 16 16s-7.163 16-16 16v0h-160c-8.837 0-16-7.163-16-16s7.163-16 16-16v0z" />
<glyph unicode="&#xe93f;" glyph-name="global-shipping" d="M1008 544v352c0 26.464-21.536 48-48 48h-448c-26.464 0-48-21.536-48-48v-95.040c-182.448-48.752-310.512-208.48-319.152-396.768-103.072-79.040-148.32-165.232-120.896-231.552 25.28-61.2 106.512-92.88 214.768-92.88 9.776 0 19.792 0.304 29.984 0.816 80.832-81.776 192.096-128.576 307.296-128.576 238.208 0 432 193.792 432 432 0 41.888-6.272 83.088-18.032 122.8 10.896 8.8 18.032 22.112 18.032 37.2zM752 880v-32h-32v32h-32v-32h-32v64h160v-64h-32v32zM496 896c0 8.816 7.168 16 16 16h112v-96h224v96h112c8.832 0 16-7.184 16-16v-352c0-8.816-7.168-16-16-16h-448c-8.832 0-16 7.184-16 16zM576-16c-47.504 0-94.448 47.472-127.952 128.064 23.392 6.736 47.088 14.448 70.96 23.328 20.416 7.6 40.352 15.84 59.776 24.608h142.304c-33.136-109.104-87.792-176-145.088-176zM642.64 192c29.504 16.288 57.232 33.792 82.4 52.336l11.296-11.296c-2.192-13.632-4.688-27.312-7.344-41.056h-86.352zM764.208 205.168l11.28-11.28 53.568 174.112h146.544c-2.512-63.568-19.888-123.376-48.8-176h-165.12c0.832 4.368 1.76 8.864 2.528 13.168zM838.896 400l16.416 53.36-73.008-15.648c-1.168 19.76-3.056 39.184-5.472 58.288h182.944c9.088-31.152 14.304-63.296 15.584-96zM176.768 400l0.464 13.12c4.176 58.432 20.688 113.712 47.456 162.88h164.336c-12.56-53.76-19.728-113.472-20.784-176zM207.584 228.288c-18.816 44.384-29.28 91.248-31.168 139.712h191.952c0.768-44.544 4.704-87.904 11.728-129.472-68.432-15.872-128.288-18.16-172.512-10.24zM411.184 246.528c-6.464 39.008-10.064 79.68-10.816 121.472h200.992l19.184-19.184c-42.592-34.496-100.336-65.504-164.592-88.224-15.232-5.376-30.112-9.92-44.768-14.064zM606.304 400h-206.064c1.136 62.432 8.848 122.48 22.032 176h41.728v-32c0-26.464 21.536-48 48-48h232.592c2.816-21.376 4.992-43.2 6.144-65.056zM464 608h-33.056c9.216 30.368 20.336 58 33.056 82.048zM464 767.76v-18.128c-27.776-36.416-50.336-84.992-66.592-141.632h-153.28c50.96 75.68 127.696 133.024 219.872 159.76zM146.56 336.704c3.616-33.392 11.2-65.968 22.448-97.52-18.752 8.080-31.696 19.040-37.456 32.272-7.68 17.664-2.080 40.544 15.008 65.248zM53.52 184.864c-15.552 37.648 3.040 87.424 49.376 138.368-8.864-22.976-9.232-44.896-0.672-64.544 33.216-76.352 193.264-88.784 364.384-28.272 74.88 26.464 141.696 63.952 188.192 105.536l12.608 11.28-27.296 27.296 168.576 36.128-48.176-156.544-32.656 32.672-11.136-8.608c-57.392-44.304-129.616-83.312-208.864-112.768-209.68-78.016-417.728-69.104-454.336 19.456zM311.28 84.256c33.728 3.872 69.104 10.352 105.552 19.472 18.784-46.4 41.776-83.136 67.52-108.864-63.856 15.12-123.536 45.728-173.072 89.392zM667.616-5.296c35.504 35.44 65.536 91.936 86.688 165.296h152.928c-55.504-81.808-140.528-141.968-239.616-165.296zM848 592h32v-32h-32zM912 592h32v-32h-32zM784 592h32v-32h-32zM784 656h160v-32h-160z" />
</font>
</defs>
</svg>
