<?xml version="1.0" encoding="UTF-8" standalone="no"?>
<!DOCTYPE svg PUBLIC "-//W3C//DTD SVG 1.1//EN"
 "http://www.w3.org/Graphics/SVG/1.1/DTD/svg11.dtd">
<!-- Generated by graphviz version 5.0.0 (20220707.1540)
 -->
<!-- Title: dependencies Pages: 1 -->
<svg width="668pt" height="174pt"
 viewBox="0.00 0.00 668.00 173.80" xmlns="http://www.w3.org/2000/svg" xmlns:xlink="http://www.w3.org/1999/xlink">
<g id="graph0" class="graph" transform="scale(1 1) rotate(0) translate(4 169.8)">
<title>dependencies</title>
<polygon fill="white" stroke="transparent" points="-4,4 -4,-169.8 664,-169.8 664,4 -4,4"/>
<text text-anchor="middle" x="330" y="-8.2" font-family="sans-serif" font-size="14.00">dependencies</text>
<g id="clust1" class="cluster">
<title>cluster_FrontofficeModule</title>
<polygon fill="none" stroke="black" stroke-dasharray="1,5" points="8,-32.8 8,-157.8 652,-157.8 652,-32.8 8,-32.8"/>
</g>
<g id="clust6" class="cluster">
<title>cluster_FrontofficeModule_imports</title>
<polygon fill="none" stroke="black" points="460,-40.8 460,-92.8 644,-92.8 644,-40.8 460,-40.8"/>
</g>
<g id="clust2" class="cluster">
<title>cluster_FrontofficeModule_declarations</title>
<polygon fill="none" stroke="black" points="16,-40.8 16,-92.8 452,-92.8 452,-40.8 16,-40.8"/>
</g>
<!-- FooterComponent -->
<g id="node1" class="node">
<title>FooterComponent</title>
<polygon fill="#ffffb3" stroke="black" points="443.88,-84.8 326.12,-84.8 326.12,-48.8 443.88,-48.8 443.88,-84.8"/>
<text text-anchor="middle" x="385" y="-62.6" font-family="Times,serif" font-size="14.00">FooterComponent</text>
</g>
<!-- FrontofficeModule -->
<g id="node4" class="node">
<title>FrontofficeModule</title>
<polygon fill="#8dd3c7" stroke="black" points="371.03,-149.8 368.03,-153.8 347.03,-153.8 344.03,-149.8 248.97,-149.8 248.97,-113.8 371.03,-113.8 371.03,-149.8"/>
<text text-anchor="middle" x="310" y="-127.6" font-family="Times,serif" font-size="14.00">FrontofficeModule</text>
</g>
<!-- FooterComponent&#45;&gt;FrontofficeModule -->
<g id="edge1" class="edge">
<title>FooterComponent&#45;&gt;FrontofficeModule</title>
<path fill="none" stroke="black" d="M348.66,-84.91C348.66,-84.91 348.66,-103.79 348.66,-103.79"/>
<polygon fill="black" stroke="black" points="345.16,-103.79 348.66,-113.79 352.16,-103.79 345.16,-103.79"/>
</g>
<!-- FrontofficeComponent -->
<g id="node2" class="node">
<title>FrontofficeComponent</title>
<polygon fill="#ffffb3" stroke="black" points="308.31,-84.8 163.69,-84.8 163.69,-48.8 308.31,-48.8 308.31,-84.8"/>
<text text-anchor="middle" x="236" y="-62.6" font-family="Times,serif" font-size="14.00">FrontofficeComponent</text>
</g>
<!-- FrontofficeComponent&#45;&gt;FrontofficeModule -->
<g id="edge2" class="edge">
<title>FrontofficeComponent&#45;&gt;FrontofficeModule</title>
<path fill="none" stroke="black" d="M278.44,-84.91C278.44,-84.91 278.44,-103.79 278.44,-103.79"/>
<polygon fill="black" stroke="black" points="274.94,-103.79 278.44,-113.79 281.94,-103.79 274.94,-103.79"/>
</g>
<!-- HeaderComponent -->
<g id="node3" class="node">
<title>HeaderComponent</title>
<polygon fill="#ffffb3" stroke="black" points="145.75,-84.8 24.25,-84.8 24.25,-48.8 145.75,-48.8 145.75,-84.8"/>
<text text-anchor="middle" x="85" y="-62.6" font-family="Times,serif" font-size="14.00">HeaderComponent</text>
</g>
<!-- HeaderComponent&#45;&gt;FrontofficeModule -->
<g id="edge3" class="edge">
<title>HeaderComponent&#45;&gt;FrontofficeModule</title>
<path fill="none" stroke="black" d="M85,-84.91C85,-104.14 85,-131.8 85,-131.8 85,-131.8 238.81,-131.8 238.81,-131.8"/>
<polygon fill="black" stroke="black" points="238.81,-135.3 248.81,-131.8 238.81,-128.3 238.81,-135.3"/>
</g>
<!-- FrontofficeRoutingModule -->
<g id="node5" class="node">
<title>FrontofficeRoutingModule</title>
<polygon fill="#8dd3c7" stroke="black" points="635.65,-84.8 632.65,-88.8 611.65,-88.8 608.65,-84.8 468.35,-84.8 468.35,-48.8 635.65,-48.8 635.65,-84.8"/>
<text text-anchor="middle" x="552" y="-62.6" font-family="Times,serif" font-size="14.00">FrontofficeRoutingModule</text>
</g>
<!-- FrontofficeRoutingModule&#45;&gt;FrontofficeModule -->
<g id="edge4" class="edge">
<title>FrontofficeRoutingModule&#45;&gt;FrontofficeModule</title>
<path fill="none" stroke="black" d="M552,-84.91C552,-104.14 552,-131.8 552,-131.8 552,-131.8 381.07,-131.8 381.07,-131.8"/>
<polygon fill="black" stroke="black" points="381.07,-128.3 371.07,-131.8 381.07,-135.3 381.07,-128.3"/>
</g>
</g>
</svg>
